<svg width="1639" height="275" viewBox="0 0 1639 275" fill="none" xmlns="http://www.w3.org/2000/svg">
<path d="M161.963 14.6077L166.237 16.629L123.937 111.758L99.3665 65.6426C96.4028 60.0802 90.4498 56.776 84.1616 57.203C77.8735 57.6301 72.4219 61.7089 70.2375 67.6209L23.6774 193.635L20.7393 190.017C11.3945 178.509 7.89075 163.33 11.2467 148.891L27.514 78.9011C30.8328 64.6222 40.4947 52.6426 53.747 46.3754L120.922 14.6076C133.912 8.46411 148.972 8.46412 161.963 14.6077Z" fill="url(#paint0_linear_2_91)"/>
<path d="M66.7254 246.644L63.6873 242.903H219.198L216.159 246.644C207.045 257.868 193.357 264.385 178.898 264.385H103.987C89.5282 264.385 75.84 257.868 66.7254 246.644Z" fill="url(#paint1_linear_2_91)"/>
<path d="M262.145 190.017L260.216 192.392L204.499 34.7233L229.138 46.3754C242.39 52.6426 252.052 64.6221 255.371 78.9011L271.638 148.891C274.994 163.33 271.49 178.509 262.145 190.017Z" fill="url(#paint2_linear_2_91)"/>
<path fillRule="evenodd" clipRule="evenodd" d="M180.591 63.1088L139.854 154.72C137.369 160.308 131.916 163.991 125.804 164.209C119.691 164.426 113.99 161.14 111.114 155.743L87.8943 112.163L51.4114 210.903H232.819L180.591 63.1088ZM168.508 177.443C168.133 177.39 167.752 177.39 167.377 177.443L156.877 178.943C154.69 179.256 153.17 181.282 153.483 183.469C153.795 185.656 155.821 187.175 158.008 186.863L167.942 185.444L177.877 186.863C178.261 186.918 178.652 186.916 179.036 186.859L188.469 185.444L198.902 186.866C201.091 187.165 203.107 185.632 203.406 183.444C203.704 181.255 202.172 179.238 199.983 178.94L188.983 177.44C188.606 177.388 188.225 177.391 187.849 177.447L178.428 178.86L168.508 177.443Z" fill="url(#paint3_linear_2_91)"/>
<path d="M413.685 76.0407C417.013 77.7047 418.933 80.3287 419.445 83.9127C420.085 87.4967 419.189 90.7607 416.757 93.7047C415.093 96.0087 412.917 97.2887 410.229 97.5447C407.669 97.8007 405.045 97.2887 402.357 96.0087C399.285 94.6007 396.021 93.5127 392.565 92.7447C389.237 91.9767 385.717 91.5927 382.005 91.5927C375.093 91.5927 368.885 92.6807 363.381 94.8567C358.005 97.0327 353.397 100.169 349.557 104.265C345.717 108.233 342.773 112.969 340.725 118.473C338.805 123.977 337.845 130.057 337.845 136.713C337.845 144.521 338.933 151.305 341.109 157.065C343.413 162.825 346.549 167.625 350.517 171.465C354.485 175.305 359.157 178.185 364.533 180.105C369.909 181.897 375.733 182.793 382.005 182.793C385.461 182.793 388.917 182.473 392.373 181.833C395.829 181.193 399.157 180.041 402.357 178.377C405.045 177.097 407.669 176.649 410.229 177.033C412.917 177.417 415.157 178.761 416.949 181.065C419.509 184.265 420.405 187.593 419.637 191.049C418.997 194.377 417.077 196.809 413.877 198.345C410.549 200.009 407.093 201.417 403.509 202.569C400.053 203.593 396.533 204.361 392.949 204.873C389.365 205.513 385.717 205.833 382.005 205.833C372.789 205.833 364.021 204.361 355.701 201.417C347.509 198.473 340.149 194.121 333.621 188.361C327.221 182.601 322.165 175.433 318.453 166.857C314.741 158.153 312.885 148.105 312.885 136.713C312.885 126.857 314.549 117.769 317.877 109.449C321.333 101.129 326.133 93.9607 332.277 87.9447C338.549 81.8007 345.909 77.0647 354.357 73.7367C362.805 70.2807 372.021 68.5527 382.005 68.5527C387.637 68.5527 393.141 69.1927 398.517 70.4727C403.893 71.7527 408.949 73.6087 413.685 76.0407Z" fill="#D9D9D9"/>
<path d="M453.804 203.913C450.22 203.913 447.02 202.825 444.204 200.649C441.388 198.345 439.98 195.529 439.98 192.201V81.2247C439.98 77.8967 441.068 75.1447 443.244 72.9687C445.548 70.6647 448.364 69.5127 451.692 69.5127H506.988C513.644 69.5127 519.852 71.3047 525.612 74.8887C531.5 78.3447 536.236 83.2087 539.82 89.4807C543.404 95.6247 545.196 102.729 545.196 110.793C545.196 115.657 544.172 120.393 542.124 125.001C540.204 129.609 537.516 133.769 534.06 137.481C530.732 141.193 526.956 144.073 522.732 146.121L522.924 141.705C526.508 143.625 529.452 145.929 531.756 148.617C534.188 151.177 536.044 153.993 537.324 157.065C538.732 160.009 539.564 163.209 539.82 166.665C540.332 169.865 540.652 172.681 540.78 175.113C541.036 177.545 541.42 179.593 541.932 181.257C542.572 182.921 543.724 184.201 545.388 185.097C548.204 186.761 549.932 189.193 550.572 192.393C551.34 195.465 550.636 198.217 548.46 200.649C547.052 202.313 545.26 203.401 543.084 203.913C540.908 204.297 538.732 204.297 536.556 203.913C534.38 203.401 532.588 202.761 531.18 201.993C529.004 200.713 526.828 198.857 524.652 196.425C522.476 193.865 520.684 190.473 519.276 186.249C517.996 182.025 517.356 176.585 517.356 169.929C517.356 167.753 516.972 165.769 516.204 163.977C515.436 162.057 514.348 160.457 512.94 159.177C511.532 157.769 509.74 156.745 507.564 156.105C505.388 155.337 502.828 154.953 499.884 154.953H461.1L463.98 150.537V192.201C463.98 195.529 463.084 198.345 461.292 200.649C459.5 202.825 457.004 203.913 453.804 203.913ZM461.292 135.177H506.028C508.332 135.177 510.572 134.153 512.748 132.105C514.924 129.929 516.716 127.049 518.124 123.465C519.532 119.753 520.236 115.721 520.236 111.369C520.236 105.737 518.7 101.065 515.628 97.3527C512.684 93.5127 509.484 91.5927 506.028 91.5927H461.676L463.98 85.4487V139.785L461.292 135.177Z" fill="#D9D9D9"/>
<path d="M595.792 192.201C595.792 195.529 594.576 198.345 592.144 200.649C589.712 202.825 586.896 203.913 583.696 203.913C580.112 203.913 577.232 202.825 575.056 200.649C572.88 198.345 571.792 195.529 571.792 192.201V81.2247C571.792 77.8967 572.944 75.1447 575.248 72.9687C577.552 70.6647 580.496 69.5127 584.08 69.5127C587.152 69.5127 589.84 70.6647 592.144 72.9687C594.576 75.1447 595.792 77.8967 595.792 81.2247V192.201Z" fill="#D9D9D9"/>
<path d="M636.763 69.3207C638.555 69.3207 640.411 69.8327 642.331 70.8567C644.379 71.7527 645.915 72.9687 646.939 74.5047L693.595 146.313L683.995 145.929L731.803 74.5047C734.235 71.0487 737.371 69.3207 741.211 69.3207C744.283 69.3207 747.035 70.4087 749.467 72.5847C751.899 74.7607 753.115 77.5767 753.115 81.0327V192.201C753.115 195.529 752.027 198.345 749.851 200.649C747.675 202.825 744.795 203.913 741.211 203.913C737.627 203.913 734.683 202.825 732.379 200.649C730.203 198.345 729.115 195.529 729.115 192.201V101.769L736.603 103.497L697.435 163.209C696.283 164.617 694.811 165.833 693.019 166.857C691.355 167.881 689.627 168.329 687.835 168.201C686.171 168.329 684.443 167.881 682.651 166.857C680.987 165.833 679.579 164.617 678.427 163.209L641.755 105.225L646.747 95.0487V192.201C646.747 195.529 645.723 198.345 643.675 200.649C641.627 202.825 638.939 203.913 635.611 203.913C632.411 203.913 629.787 202.825 627.739 200.649C625.691 198.345 624.667 195.529 624.667 192.201V81.0327C624.667 77.8327 625.819 75.0807 628.123 72.7767C630.555 70.4727 633.435 69.3207 636.763 69.3207Z" fill="#D9D9D9"/>
<path d="M837.468 69.5127C844.124 69.5127 850.332 71.4327 856.092 75.2727C861.98 79.1127 866.716 84.2967 870.3 90.8247C873.884 97.3527 875.676 104.649 875.676 112.713C875.676 120.649 873.884 127.881 870.3 134.409C866.716 140.937 861.98 146.185 856.092 150.153C850.332 153.993 844.124 155.913 837.468 155.913H802.14L804.06 152.457V192.201C804.06 195.529 803.036 198.345 800.988 200.649C798.94 202.825 796.252 203.913 792.924 203.913C789.724 203.913 787.1 202.825 785.052 200.649C783.004 198.345 781.98 195.529 781.98 192.201V81.2247C781.98 77.8967 783.068 75.1447 785.244 72.9687C787.548 70.6647 790.364 69.5127 793.692 69.5127H837.468ZM837.468 134.025C839.9 134.025 842.268 133.001 844.572 130.953C846.876 128.905 848.796 126.281 850.332 123.081C851.868 119.753 852.636 116.297 852.636 112.713C852.636 109.001 851.868 105.545 850.332 102.345C848.796 99.1447 846.876 96.5847 844.572 94.6647C842.268 92.6167 839.9 91.5927 837.468 91.5927H801.756L804.06 88.1367V137.097L801.948 134.025H837.468Z" fill="#D9D9D9"/>
<path d="M971.779 181.449C975.107 181.449 977.859 182.537 980.035 184.713C982.339 186.761 983.491 189.449 983.491 192.777C983.491 195.977 982.339 198.665 980.035 200.841C977.859 202.889 975.107 203.913 971.779 203.913H909.379C906.051 203.913 903.235 202.825 900.931 200.649C898.755 198.345 897.667 195.529 897.667 192.201V81.2247C897.667 77.8967 898.819 75.1447 901.123 72.9687C903.427 70.6647 906.371 69.5127 909.955 69.5127C913.027 69.5127 915.715 70.6647 918.019 72.9687C920.451 75.1447 921.667 77.8967 921.667 81.2247V184.713L917.443 181.449H971.779Z" fill="#D9D9D9"/>
<path d="M1017.19 69.5127H1081.51C1084.84 69.5127 1087.59 70.6007 1089.77 72.7767C1092.07 74.8247 1093.22 77.5127 1093.22 80.8407C1093.22 84.0407 1092.07 86.6647 1089.77 88.7127C1087.59 90.6327 1084.84 91.5927 1081.51 91.5927H1027.75L1029.48 88.3287V125.769L1027.94 124.233H1072.87C1076.2 124.233 1078.95 125.321 1081.13 127.497C1083.43 129.545 1084.58 132.233 1084.58 135.561C1084.58 138.761 1083.43 141.385 1081.13 143.433C1078.95 145.353 1076.2 146.313 1072.87 146.313H1028.52L1029.48 144.777V183.561L1027.94 181.833H1081.51C1084.84 181.833 1087.59 182.985 1089.77 185.289C1092.07 187.465 1093.22 190.025 1093.22 192.969C1093.22 196.169 1092.07 198.793 1089.77 200.841C1087.59 202.889 1084.84 203.913 1081.51 203.913H1017.19C1013.86 203.913 1011.05 202.825 1008.74 200.649C1006.57 198.345 1005.48 195.529 1005.48 192.201V81.2247C1005.48 77.8967 1006.57 75.1447 1008.74 72.9687C1011.05 70.6647 1013.86 69.5127 1017.19 69.5127Z" fill="#D9D9D9"/>
<path d="M1207.32 69.3207C1210.27 69.3207 1212.76 70.4727 1214.81 72.7767C1216.99 75.0807 1218.07 77.5127 1218.07 80.0727C1218.07 82.5047 1217.24 84.8087 1215.58 86.9847L1176.99 137.865L1163.93 120.009L1197.91 74.8887C1200.6 71.1767 1203.74 69.3207 1207.32 69.3207ZM1121.69 68.9367C1125.4 68.9367 1128.54 70.6007 1131.1 73.9287L1215.58 186.249C1217.11 188.297 1217.88 190.665 1217.88 193.353C1217.88 196.937 1216.6 199.753 1214.04 201.801C1211.48 203.849 1208.92 204.873 1206.36 204.873C1202.65 204.873 1199.51 203.209 1196.95 199.881L1112.47 87.5607C1110.81 85.5127 1109.98 83.2087 1109.98 80.6487C1109.98 77.3207 1111.19 74.5687 1113.63 72.3927C1116.19 70.0887 1118.87 68.9367 1121.69 68.9367ZM1119.96 204.873C1117.15 204.873 1114.71 203.849 1112.67 201.801C1110.62 199.625 1109.59 197.257 1109.59 194.697C1109.59 191.881 1110.55 189.257 1112.47 186.825L1151.45 134.025L1164.12 152.649L1129.56 199.497C1127 203.081 1123.8 204.873 1119.96 204.873Z" fill="#D9D9D9"/>
<g clipPath="url(#clip0_2_91)">
<path d="M1329.95 121.065L1309.21 169.833C1308.76 171.049 1308.06 172.009 1307.1 172.713C1306.2 173.353 1305.21 173.673 1304.12 173.673C1302.39 173.673 1301.11 173.193 1300.28 172.233C1299.45 171.273 1299.03 170.089 1299.03 168.681C1299.03 168.105 1299.13 167.497 1299.32 166.857L1323.23 109.449C1323.74 108.169 1324.51 107.177 1325.53 106.473C1326.62 105.769 1327.77 105.481 1328.99 105.609C1330.14 105.609 1331.19 105.961 1332.15 106.665C1333.18 107.305 1333.91 108.233 1334.36 109.449L1357.98 165.705C1358.3 166.537 1358.46 167.305 1358.46 168.009C1358.46 169.737 1357.88 171.113 1356.73 172.137C1355.64 173.161 1354.43 173.673 1353.08 173.673C1351.93 173.673 1350.87 173.321 1349.91 172.617C1349.02 171.913 1348.31 170.953 1347.8 169.737L1327.16 121.641L1329.95 121.065ZM1312.19 158.121L1317.47 147.081H1343.39L1345.21 158.121H1312.19ZM1407.68 102.153C1409.34 102.153 1410.72 102.697 1411.8 103.785C1412.89 104.873 1413.44 106.281 1413.44 108.009V167.337C1413.44 169.001 1412.89 170.409 1411.8 171.561C1410.72 172.649 1409.34 173.193 1407.68 173.193C1406.01 173.193 1404.64 172.649 1403.55 171.561C1402.46 170.409 1401.92 169.001 1401.92 167.337V162.633L1404.03 163.497C1404.03 164.329 1403.58 165.353 1402.68 166.569C1401.79 167.721 1400.57 168.873 1399.04 170.025C1397.5 171.177 1395.68 172.169 1393.56 173.001C1391.52 173.769 1389.28 174.153 1386.84 174.153C1382.43 174.153 1378.43 173.033 1374.84 170.793C1371.26 168.489 1368.41 165.353 1366.3 161.385C1364.25 157.353 1363.23 152.745 1363.23 147.561C1363.23 142.313 1364.25 137.705 1366.3 133.737C1368.41 129.705 1371.23 126.569 1374.75 124.329C1378.27 122.025 1382.17 120.873 1386.46 120.873C1389.21 120.873 1391.74 121.289 1394.04 122.121C1396.35 122.953 1398.33 124.009 1400 125.289C1401.72 126.569 1403.04 127.881 1403.93 129.225C1404.89 130.505 1405.37 131.593 1405.37 132.489L1401.92 133.737V108.009C1401.92 106.345 1402.46 104.969 1403.55 103.881C1404.64 102.729 1406.01 102.153 1407.68 102.153ZM1388.28 163.593C1391.1 163.593 1393.56 162.889 1395.68 161.481C1397.79 160.073 1399.42 158.153 1400.57 155.721C1401.79 153.289 1402.4 150.569 1402.4 147.561C1402.4 144.489 1401.79 141.737 1400.57 139.305C1399.42 136.873 1397.79 134.953 1395.68 133.545C1393.56 132.137 1391.1 131.433 1388.28 131.433C1385.53 131.433 1383.1 132.137 1380.99 133.545C1378.88 134.953 1377.21 136.873 1376 139.305C1374.84 141.737 1374.27 144.489 1374.27 147.561C1374.27 150.569 1374.84 153.289 1376 155.721C1377.21 158.153 1378.88 160.073 1380.99 161.481C1383.1 162.889 1385.53 163.593 1388.28 163.593ZM1452.88 120.873C1458 120.873 1461.78 122.121 1464.21 124.617C1466.64 127.049 1468.24 130.217 1469.01 134.121L1467.38 133.257L1468.15 131.721C1468.92 130.249 1470.1 128.681 1471.7 127.017C1473.3 125.289 1475.22 123.849 1477.46 122.697C1479.76 121.481 1482.32 120.873 1485.14 120.873C1489.75 120.873 1493.24 121.865 1495.6 123.849C1498.04 125.833 1499.7 128.489 1500.6 131.817C1501.49 135.081 1501.94 138.729 1501.94 142.761V167.337C1501.94 169.001 1501.4 170.409 1500.31 171.561C1499.22 172.649 1497.84 173.193 1496.18 173.193C1494.52 173.193 1493.14 172.649 1492.05 171.561C1490.96 170.409 1490.42 169.001 1490.42 167.337V142.761C1490.42 140.649 1490.16 138.761 1489.65 137.097C1489.14 135.369 1488.21 133.993 1486.87 132.969C1485.52 131.945 1483.6 131.433 1481.11 131.433C1478.68 131.433 1476.6 131.945 1474.87 132.969C1473.14 133.993 1471.83 135.369 1470.93 137.097C1470.1 138.761 1469.68 140.649 1469.68 142.761V167.337C1469.68 169.001 1469.14 170.409 1468.05 171.561C1466.96 172.649 1465.59 173.193 1463.92 173.193C1462.26 173.193 1460.88 172.649 1459.8 171.561C1458.71 170.409 1458.16 169.001 1458.16 167.337V142.761C1458.16 140.649 1457.91 138.761 1457.4 137.097C1456.88 135.369 1455.96 133.993 1454.61 132.969C1453.27 131.945 1451.35 131.433 1448.85 131.433C1446.42 131.433 1444.34 131.945 1442.61 132.969C1440.88 133.993 1439.57 135.369 1438.68 137.097C1437.84 138.761 1437.43 140.649 1437.43 142.761V167.337C1437.43 169.001 1436.88 170.409 1435.8 171.561C1434.71 172.649 1433.33 173.193 1431.67 173.193C1430 173.193 1428.63 172.649 1427.54 171.561C1426.45 170.409 1425.91 169.001 1425.91 167.337V127.689C1425.91 126.025 1426.45 124.649 1427.54 123.561C1428.63 122.409 1430 121.833 1431.67 121.833C1433.33 121.833 1434.71 122.409 1435.8 123.561C1436.88 124.649 1437.43 126.025 1437.43 127.689V131.817L1435.99 131.529C1436.56 130.441 1437.36 129.289 1438.39 128.073C1439.41 126.793 1440.66 125.609 1442.13 124.521C1443.6 123.433 1445.24 122.569 1447.03 121.929C1448.82 121.225 1450.77 120.873 1452.88 120.873ZM1525.26 167.337C1525.26 169.001 1524.71 170.409 1523.62 171.561C1522.54 172.649 1521.16 173.193 1519.5 173.193C1517.83 173.193 1516.46 172.649 1515.37 171.561C1514.28 170.409 1513.74 169.001 1513.74 167.337V127.689C1513.74 126.025 1514.28 124.649 1515.37 123.561C1516.46 122.409 1517.83 121.833 1519.5 121.833C1521.16 121.833 1522.54 122.409 1523.62 123.561C1524.71 124.649 1525.26 126.025 1525.26 127.689V167.337ZM1519.4 115.593C1517.22 115.593 1515.69 115.241 1514.79 114.537C1513.9 113.833 1513.45 112.585 1513.45 110.793V108.969C1513.45 107.113 1513.93 105.865 1514.89 105.225C1515.91 104.521 1517.45 104.169 1519.5 104.169C1521.74 104.169 1523.3 104.521 1524.2 105.225C1525.1 105.929 1525.54 107.177 1525.54 108.969V110.793C1525.54 112.649 1525.06 113.929 1524.1 114.633C1523.14 115.273 1521.58 115.593 1519.4 115.593ZM1564.55 120.873C1569.29 120.873 1572.87 121.865 1575.3 123.849C1577.8 125.833 1579.5 128.489 1580.39 131.817C1581.35 135.081 1581.83 138.729 1581.83 142.761V167.337C1581.83 169.001 1581.29 170.409 1580.2 171.561C1579.11 172.649 1577.74 173.193 1576.07 173.193C1574.41 173.193 1573.03 172.649 1571.94 171.561C1570.86 170.409 1570.31 169.001 1570.31 167.337V142.761C1570.31 140.649 1570.02 138.761 1569.45 137.097C1568.94 135.369 1567.98 133.993 1566.57 132.969C1565.16 131.945 1563.14 131.433 1560.52 131.433C1557.96 131.433 1555.78 131.945 1553.99 132.969C1552.26 133.993 1550.92 135.369 1549.96 137.097C1549.06 138.761 1548.62 140.649 1548.62 142.761V167.337C1548.62 169.001 1548.07 170.409 1546.98 171.561C1545.9 172.649 1544.52 173.193 1542.86 173.193C1541.19 173.193 1539.82 172.649 1538.73 171.561C1537.64 170.409 1537.1 169.001 1537.1 167.337V127.689C1537.1 126.025 1537.64 124.649 1538.73 123.561C1539.82 122.409 1541.19 121.833 1542.86 121.833C1544.52 121.833 1545.9 122.409 1546.98 123.561C1548.07 124.649 1548.62 126.025 1548.62 127.689V131.817L1547.18 131.529C1547.75 130.441 1548.58 129.289 1549.67 128.073C1550.76 126.793 1552.04 125.609 1553.51 124.521C1554.98 123.433 1556.65 122.569 1558.5 121.929C1560.36 121.225 1562.38 120.873 1564.55 120.873Z" fill="#217D46"/>
</g>
<rect x="1262.07" y="77.1927" width="362" height="120" rx="21" stroke="#217D46" stroke-width="8"/>
<defs>
<linearGradient id="paint0_linear_2_91" x1="200.5" y1="-4.5" x2="80" y2="295" gradientUnits="userSpaceOnUse">
<stop stopColor="#878787"/>
<stop offset="1" stopColor="#16A249"/>
</linearGradient>
<linearGradient id="paint1_linear_2_91" x1="200.5" y1="-4.5" x2="80" y2="295" gradientUnits="userSpaceOnUse">
<stop stopColor="#878787"/>
<stop offset="1" stopColor="#16A249"/>
</linearGradient>
<linearGradient id="paint2_linear_2_91" x1="200.5" y1="-4.5" x2="80" y2="295" gradientUnits="userSpaceOnUse">
<stop stopColor="#878787"/>
<stop offset="1" stopColor="#16A249"/>
</linearGradient>
<linearGradient id="paint3_linear_2_91" x1="200.5" y1="-4.5" x2="80" y2="295" gradientUnits="userSpaceOnUse">
<stop stopColor="#878787"/>
<stop offset="1" stopColor="#16A249"/>
</linearGradient>
<clipPath id="clip0_2_91">
<rect x="1258.07" y="73.1927" width="370" height="128" rx="25" fill="white"/>
</clipPath>
</defs>
</svg>
