<svg width="180" height="180" viewBox="0 0 180 180" fill="none" xmlns="http://www.w3.org/2000/svg">
<path d="M104.051 3.26032L106.977 4.69057L78.014 72.0025L61.1902 39.372C59.1609 35.4362 55.0848 33.0981 50.7792 33.4003C46.4737 33.7025 42.7409 36.5886 41.2452 40.7719L9.36504 129.938L7.35333 127.378C0.954805 119.235 -1.44422 108.494 0.853629 98.2776L11.992 48.7536C14.2644 38.65 20.88 30.1734 29.954 25.7388L75.9492 3.26031C84.8441 -1.08677 95.1559 -1.08677 104.051 3.26032Z" fill="url(#paint0_linear_11_5)"/>
<path d="M38.8405 167.447L36.7602 164.799H143.24L141.159 167.447C134.919 175.388 125.546 180 115.646 180H64.3536C54.4538 180 45.0813 175.388 38.8405 167.447Z" fill="url(#paint1_linear_11_5)"/>
<path d="M172.647 127.378L171.326 129.058L133.175 17.4939L150.046 25.7388C159.12 30.1734 165.736 38.65 168.008 48.7536L179.146 98.2776C181.444 108.494 179.045 119.235 172.647 127.378Z" fill="url(#paint2_linear_11_5)"/>
<path fill-rule="evenodd" clip-rule="evenodd" d="M116.805 37.5791L88.9127 102.402C87.2112 106.356 83.4772 108.962 79.292 109.116C75.1069 109.27 71.203 106.945 69.2338 103.126L53.3351 72.2893L28.3548 142.157H152.566L116.805 37.5791ZM108.532 118.481C108.275 118.443 108.014 118.443 107.758 118.481L100.568 119.542C99.0706 119.763 98.0301 121.197 98.2441 122.744C98.458 124.292 99.8453 125.367 101.343 125.146L108.145 124.142L114.947 125.146C115.21 125.185 115.478 125.184 115.741 125.143L122.2 124.142L129.343 125.149C130.842 125.36 132.223 124.275 132.427 122.727C132.631 121.178 131.582 119.751 130.083 119.54L122.551 118.478C122.294 118.442 122.032 118.444 121.775 118.484L115.325 119.484L108.532 118.481Z" fill="url(#paint3_linear_11_5)"/>
<defs>
<linearGradient id="paint0_linear_11_5" x1="130.437" y1="-10.26" x2="43.1504" y2="199.675" gradientUnits="userSpaceOnUse">
<stop stop-color="#878787"/>
<stop offset="1" stop-color="#16A249"/>
</linearGradient>
<linearGradient id="paint1_linear_11_5" x1="130.437" y1="-10.26" x2="43.1504" y2="199.675" gradientUnits="userSpaceOnUse">
<stop stop-color="#878787"/>
<stop offset="1" stop-color="#16A249"/>
</linearGradient>
<linearGradient id="paint2_linear_11_5" x1="130.437" y1="-10.26" x2="43.1504" y2="199.675" gradientUnits="userSpaceOnUse">
<stop stop-color="#878787"/>
<stop offset="1" stop-color="#16A249"/>
</linearGradient>
<linearGradient id="paint3_linear_11_5" x1="130.437" y1="-10.26" x2="43.1504" y2="199.675" gradientUnits="userSpaceOnUse">
<stop stop-color="#878787"/>
<stop offset="1" stop-color="#16A249"/>
</linearGradient>
</defs>
</svg>
