<svg width="750" height="500" viewBox="0 0 750 500" fill="none" xmlns="http://www.w3.org/2000/svg">
<g clip-path="url(#clip0_22_9614)">
<mask id="mask0_22_9614" style="mask-type:luminance" maskUnits="userSpaceOnUse" x="0" y="0" width="750" height="500">
<path d="M750 0H0V500H750V0Z" fill="white"/>
</mask>
<g mask="url(#mask0_22_9614)">
<path d="M750 0H0V500H750V0Z" fill="#B3DAF6"/>
<path opacity="0.35" fill-rule="evenodd" clip-rule="evenodd" d="M68.629 152.304C156.666 160.414 238.679 187.297 322.906 207.203C407.133 227.109 499.775 240.03 583.868 219.842C625.463 209.856 663.923 191.989 707.597 188.75C748.406 185.724 788.745 195.902 826.406 207.456C864.067 219.011 901.568 232.277 942.267 235.978C982.965 239.679 1028.7 231.705 1052.7 208.09C1047.7 168.542 1042.7 128.994 1037.71 89.446C914.824 122.523 781.724 156.063 654.87 131.674C632.302 127.335 609.565 121.14 586.306 122.842C542.646 126.037 513.242 154.876 476.759 172.19C430.586 194.103 367.856 197.12 317.938 179.83C273.534 164.45 236.82 134.022 187.444 132.684C157.195 131.864 128.32 142.555 98.053 142.875C73.268 143.137 49.454 136.449 24.9 134.042C-2.44902 131.361 -30.331 134.151 -56.444 140.2C-80.67 145.812 -115.729 155.146 -133.762 168.46C-154.34 183.652 -107.253 170.502 -99.713 168.023C-75.526 160.072 -49.501 155.088 -23.144 152.457C7.22697 149.427 38.229 149.504 68.629 152.304Z" fill="#D6E4F6"/>
<path opacity="0.35" fill-rule="evenodd" clip-rule="evenodd" d="M74.202 214.201C130.45 217.348 184.178 231.311 238.762 241.445C293.346 251.579 351.874 257.833 405.614 245.636C432.682 239.493 457.889 228.793 486.026 225.962C530.321 221.505 573.073 237.073 613.515 250.645C653.958 264.217 700.483 276.366 742.378 265.23C766.926 258.705 786.167 245.002 808.846 235.673C860.878 214.271 925.936 217.675 984.538 227.271C1043.14 236.867 1100.86 252.06 1161 252.254C1071.6 246.853 979.975 241.585 893.476 258.491C830.864 270.728 770.276 294.557 705.521 291.043C659.716 288.557 617.123 272.42 571.371 269.49C513.69 265.796 457.52 283.325 399.716 285.881C333.09 288.827 268.399 271.884 204.575 258.004C140.751 244.124 71.561 233.159 8.07002 247.789C-7.97498 251.486 -23.441 256.786 -40.13 258.534C-52.82 259.863 -81.039 259.925 -74.55 246.857C-69.865 237.422 -44.197 229.544 -32.436 225.782C0.678024 215.187 38.232 212.188 74.202 214.201Z" fill="#D6E4F6"/>
<path opacity="0.35" fill-rule="evenodd" clip-rule="evenodd" d="M9.58296 65.8001C59.968 80.8621 108.322 99.7531 160.817 110.595C213.313 121.437 272.259 123.461 320.611 105.352C351.405 93.8201 377.301 74.4781 411.474 69.7361C470.868 61.4951 530.608 100.559 588.381 87.7721C607.944 83.4421 624.066 73.6171 642.569 67.3661C704.448 46.4591 776.221 68.507 844.036 75.5421C923.584 83.7941 1007.3 69.7561 1073.22 37.1101C1022.5 66.8721 950.211 69.264 884.959 63.135C819.707 57.006 754.846 43.7871 689.24 47.5611C628.182 51.0741 567.032 69.2141 507.454 59.1041C476.516 53.8541 446.873 41.0691 415.298 43.8071C391.425 45.8781 371.077 56.529 349.254 63.702C271.225 89.3481 178.096 69.159 104.095 38.0791C54.202 17.1261 -0.278046 -9.81695 -56.355 0.627053C-71.672 3.48005 -148.388 35.9801 -121.37 43.3751C-112.536 45.7931 -97.53 44.1571 -87.802 45.1451C-76.636 46.2801 -65.58 47.9341 -54.664 49.9431C-32.694 53.9861 -11.317 59.5531 9.58296 65.8001Z" fill="#D6E4F6"/>
</g>
</g>
<defs>
<clipPath id="clip0_22_9614">
<rect width="750" height="500" fill="white"/>
</clipPath>
</defs>
</svg>
