<svg width="750" height="500" viewBox="0 0 750 500" fill="none" xmlns="http://www.w3.org/2000/svg">
<g clip-path="url(#clip0_22_9718)">
<path fill-rule="evenodd" clip-rule="evenodd" d="M417.233 412.275C423.381 400.6 424.161 392.407 424.267 392.55C427.505 404.833 432.758 412.233 438.297 419.819L435.1 418.47L441.133 426.926L436.467 423.298L440.723 430.428L437.039 428.072L449.87 452.64L447.169 451.366L449.216 455.186L447.169 453.913C447.169 453.913 456.174 467.284 455.355 466.392C454.537 465.501 448.357 460.137 448.357 460.137L462.048 488.165L459.592 486.765L462.376 490.712C462.376 490.712 468.597 500.263 467.288 499.244C466.523 498.65 463.667 496.277 461.422 494.404C462.815 498.072 463.624 500.215 463.624 500.215L451.688 500.021L438.938 498.853L434.326 499.242L413.959 500.48C413.959 500.48 411.701 501.103 409.792 501.727C407.883 502.35 406.815 496.992 406.815 496.992C406.815 496.992 401.806 499.359 399.549 501.103C397.292 502.848 400 495.723 400 495.723C400 495.723 397.293 497.615 395.209 499.982C393.126 502.35 396.424 495.371 396.424 495.371C396.424 495.371 393.426 495.062 388.679 498.956C386.418 500.811 387.541 499.076 390.714 493.512L385 498.263C385 498.263 390.036 488.097 389.556 488.19C389.076 488.284 395.791 478.491 396.631 476.905C397.47 475.319 392.914 479.329 392.601 479.772C392.288 480.215 395.912 473.641 396.751 472.334C397.59 471.029 405.641 455.106 405.641 455.106C405.641 455.106 404.585 455.778 403.531 456.599C402.475 457.419 405.737 450.928 406.216 449.191C406.696 447.455 403.243 451.972 401.804 453.465C400.365 454.956 402.475 451.972 406.792 444.809C411.109 437.647 416.11 425.827 416.11 425.827C416.11 425.827 414.424 426.774 413.58 427.867C412.737 428.961 415.36 421.747 415.735 419.818C416.11 417.888 412.456 422.985 411.52 424.297C410.581 425.61 413.705 418.974 417.233 412.275Z" fill="#1B5373"/>
<path fill-rule="evenodd" clip-rule="evenodd" d="M554.351 412.275C560.499 400.6 561.279 392.407 561.385 392.55C564.623 404.833 569.877 412.233 575.415 419.819L572.217 418.47L578.25 426.926L573.584 423.298L577.841 430.428L574.157 428.072L586.988 452.64L584.286 451.366L586.333 455.186L584.286 453.913C584.286 453.913 593.291 467.284 592.473 466.392C591.654 465.501 585.475 460.137 585.475 460.137L599.165 488.165L596.71 486.765L599.493 490.712C599.493 490.712 605.714 500.263 604.405 499.244C603.64 498.65 600.785 496.277 598.54 494.404C599.932 498.072 600.742 500.215 600.742 500.215L588.805 500.021L576.055 498.853L571.444 499.242L551.076 500.48C551.076 500.48 548.818 501.103 546.909 501.727C544.999 502.35 543.933 496.992 543.933 496.992C543.933 496.992 538.923 499.359 536.666 501.103C534.409 502.848 537.117 495.723 537.117 495.723C537.117 495.723 534.41 497.615 532.326 499.982C530.243 502.35 533.542 495.371 533.542 495.371C533.542 495.371 530.544 495.062 525.796 498.956C523.535 500.811 524.659 499.076 527.831 493.512L522.117 498.263C522.117 498.263 527.153 488.097 526.673 488.19C526.193 488.284 532.908 478.491 533.748 476.905C534.587 475.319 530.031 479.329 529.718 479.772C529.405 480.215 533.029 473.641 533.868 472.334C534.707 471.029 542.758 455.106 542.758 455.106C542.758 455.106 541.702 455.778 540.648 456.599C539.592 457.419 542.854 450.928 543.334 449.191C543.814 447.455 540.36 451.972 538.921 453.465C537.482 454.956 539.592 451.972 543.909 444.809C548.226 437.647 553.227 425.827 553.227 425.827C553.227 425.827 551.541 426.774 550.697 427.867C549.855 428.961 552.477 421.747 552.852 419.818C553.226 417.888 549.573 422.985 548.636 424.297C547.699 425.61 550.823 418.974 554.351 412.275Z" fill="#1B5373"/>
<path fill-rule="evenodd" clip-rule="evenodd" d="M595.955 415.417C602.104 403.742 602.883 395.549 602.989 395.691C606.228 407.975 611.481 415.375 617.02 422.961L613.822 421.612L619.855 430.068L615.188 426.44L619.445 433.57L615.761 431.214L628.591 455.781L625.89 454.508L627.936 458.328L625.89 457.055C625.89 457.055 634.894 470.425 634.076 469.534C633.257 468.643 627.078 463.278 627.078 463.278L640.769 491.307L638.313 489.907L641.096 493.854C641.096 493.854 647.318 503.405 646.007 502.386C645.243 501.792 642.387 499.419 640.142 497.545C641.533 501.214 642.344 503.357 642.344 503.357L630.408 503.162L617.658 501.994L613.046 502.383L592.678 503.621C592.678 503.621 590.422 504.244 588.512 504.867C586.601 505.491 585.535 500.132 585.535 500.132C585.535 500.132 580.525 502.5 578.269 504.244C576.012 505.988 578.72 498.864 578.72 498.864C578.72 498.864 576.012 500.756 573.928 503.123C571.844 505.491 575.144 498.512 575.144 498.512C575.144 498.512 572.146 498.203 567.399 502.097C565.137 503.952 566.262 502.217 569.434 496.653L563.72 501.404C563.72 501.404 568.756 491.238 568.276 491.331C567.796 491.424 574.511 481.631 575.351 480.046C576.19 478.461 571.634 482.471 571.321 482.914C571.007 483.357 574.632 476.783 575.471 475.476C576.31 474.171 584.359 458.248 584.359 458.248C584.359 458.248 583.304 458.92 582.249 459.741C581.194 460.561 584.455 454.07 584.935 452.333C585.415 450.597 581.961 455.114 580.522 456.607C579.083 458.098 581.194 455.114 585.511 447.951C589.828 440.789 594.829 428.969 594.829 428.969C594.829 428.969 593.143 429.916 592.299 431.009C591.456 432.102 594.078 424.889 594.453 422.96C594.828 421.03 591.174 426.127 590.237 427.439C589.304 428.75 592.428 422.116 595.955 415.417Z" fill="#1B5373"/>
<path fill-rule="evenodd" clip-rule="evenodd" d="M567.907 492.754L554.724 498.732L562.964 479.713C562.964 479.713 561.08 481.062 560.256 482.054C559.432 483.045 562.493 477.546 562.964 476.285C563.435 475.023 559.785 479.713 559.785 479.713L569.024 452.127C569.024 452.127 566.482 455.733 565.822 456.454C565.163 457.176 570.248 446.502 570.625 445.78C571.002 445.059 569.777 446.573 569.024 447.295C568.271 448.016 570.907 442.319 570.907 442.319C570.907 442.319 568.836 445.204 567.8 446.646C566.764 448.088 578.034 416.695 578.034 416.695L574.87 420.013L579.164 408.647C579.164 408.647 578.185 409.685 577.582 410.32C576.979 410.954 580.52 404.608 580.746 403.973C580.971 403.338 578.862 405.762 577.807 406.973C576.753 408.184 586.019 388.683 586.341 388.018C586.362 387.973 586.377 388.014 586.386 388.13L591.41 400.943L589.729 399.281L594.543 415.164L591.966 412.629C591.966 412.629 597.134 425.856 596.831 425.49C596.526 425.124 595.355 423.57 595.355 423.57C595.355 423.57 597.394 428.879 597.091 428.48C596.788 428.082 595.832 426.951 595.832 426.951C595.832 426.951 605.01 449.598 604.417 448.625C603.824 447.651 600.602 444.276 600.602 444.276L604.417 451.741L602.891 450.832C602.891 450.832 610.486 472.231 610.252 471.582C610.018 470.933 605.569 464.388 605.781 465.091C605.993 465.794 607.829 469.905 607.335 469.472C606.84 469.039 606.346 468.932 606.346 468.932C606.346 468.932 610 477.565 613.571 484.588C613.608 484.659 610.253 482.231 610.253 482.231L612.091 487.257C612.091 487.257 615.953 495.602 614.574 494.652C613.194 493.702 607.401 492.768 607.401 492.768L589.972 492.699L567.907 492.754Z" fill="#1F5C7D"/>
<path fill-rule="evenodd" clip-rule="evenodd" d="M516.734 402.438C516.743 402.438 516.75 402.451 516.755 402.478L523.185 414.498L521.358 412.871L524.207 418.247L522.089 416.35L527.978 431.888L526.001 430.072L530.323 438.269L528.977 436.882L529.874 439.687L528.829 438.545L533.115 445.916L531.469 444.22L532.516 446.81L533.563 450.081L531.867 447.675L537.051 458.632L535.229 456.064L542.894 472.333L540.306 470.439L542.077 474.228L540.014 472.353L549.031 489.213L546.743 487.072L548.499 492.304L545.566 489.496L550.143 500.937H549.114C549.914 503.663 550.287 505.175 550.094 505.067C550.057 505.047 549.989 505.028 549.887 505.007L549.933 505.072L549.728 504.979C544.162 504.113 481.228 502.789 481.228 502.789L479.324 502.752L488.292 482.743L484.755 485.457L487.697 478.096L486.226 478.758L491.269 472.016L488.594 473.505L491.403 468.625L488.327 470.611L496.864 454.043L495.299 454.841L497.272 451.522L495.134 453.182L497.764 449.879H497.272L498.039 447.796L495.902 450.559L506.29 431.75L504.557 432.699L506.132 429.946L504.282 431.512L507.09 426.643L505.857 427.913L509.928 419.464L508.605 421.135L511.884 412.598L510.907 412.989L516.688 402.524C516.704 402.484 516.714 402.461 516.718 402.452C516.723 402.443 516.729 402.438 516.734 402.438Z" fill="#1B5373"/>
<path fill-rule="evenodd" clip-rule="evenodd" d="M517.513 499.543L504.33 505.522L512.57 486.503C512.57 486.503 510.686 487.852 509.863 488.844C509.038 489.835 512.1 484.336 512.57 483.074C513.041 481.812 509.392 486.503 509.392 486.503L518.631 458.917C518.631 458.917 516.088 462.523 515.429 463.244C514.769 463.966 519.855 453.292 520.231 452.57C520.608 451.849 519.385 453.363 518.631 454.085C517.877 454.806 520.513 449.109 520.513 449.109C520.513 449.109 518.442 451.994 517.406 453.436C516.37 454.878 527.64 423.484 527.64 423.484L524.476 426.803L528.77 415.437C528.77 415.437 527.79 416.475 527.187 417.11C526.585 417.744 530.126 411.397 530.351 410.763C530.577 410.128 528.467 412.552 527.413 413.763C526.358 414.974 535.624 395.473 535.946 394.807C535.968 394.763 535.982 394.804 535.991 394.92L541.016 407.733L539.335 406.071L544.148 421.954L541.572 419.419C541.572 419.419 546.739 432.646 546.436 432.279C546.132 431.914 544.961 430.36 544.961 430.36C544.961 430.36 547 435.669 546.697 435.27C546.393 434.871 545.438 433.741 545.438 433.741C545.438 433.741 554.615 456.388 554.022 455.415C553.429 454.441 550.208 451.066 550.208 451.066L554.022 458.531L552.497 457.622C552.497 457.622 560.092 479.021 559.858 478.371C559.624 477.722 555.175 471.178 555.387 471.881C555.599 472.584 557.436 476.694 556.941 476.262C556.447 475.829 555.953 475.721 555.953 475.721C555.953 475.721 559.608 484.355 563.177 491.378C563.214 491.449 559.859 489.021 559.859 489.021L561.697 494.046C561.697 494.046 565.56 502.392 564.18 501.442C562.801 500.492 557.008 499.558 557.008 499.558L539.579 499.488L517.513 499.543Z" fill="#1F5C7D"/>
<path fill-rule="evenodd" clip-rule="evenodd" d="M490.951 404.681C490.96 404.681 490.966 404.694 490.972 404.721L497.402 416.741L495.576 415.115L498.425 420.491L496.307 418.593L502.196 434.131L500.218 432.316L504.54 440.512L503.194 439.125L504.091 441.931L503.046 440.79L507.332 448.16L505.686 446.465L506.733 449.055L507.78 452.325L506.083 449.919L511.268 460.877L509.446 458.309L517.111 474.579L514.523 472.684L516.294 476.473L514.23 474.598L523.247 491.458L520.959 489.318L522.715 494.55L519.782 491.74L524.359 503.181H523.33C524.13 505.908 524.503 507.419 524.309 507.311C524.273 507.292 524.204 507.272 524.103 507.251L524.148 507.317L523.944 507.224C518.378 506.357 455.444 505.033 455.444 505.033L453.54 504.997L462.508 484.986L458.971 487.701L461.913 480.339L460.442 481.001L465.485 474.26L462.81 475.748L465.619 470.868L462.543 472.853L471.081 456.286L469.516 457.084L471.489 453.764L469.352 455.424L471.982 452.121H471.49L472.256 450.038L470.12 452.801L480.508 433.993L478.774 434.941L480.35 432.188L478.5 433.755L481.308 428.885L480.075 430.155L484.146 421.706L482.823 423.378L486.102 414.84L485.125 415.232L490.906 404.766C490.922 404.727 490.932 404.703 490.936 404.694C490.94 404.686 490.946 404.681 490.951 404.681Z" fill="#1F5C7D"/>
<path fill-rule="evenodd" clip-rule="evenodd" d="M452.277 404.681C452.286 404.681 452.293 404.694 452.299 404.721L458.727 416.741L456.902 415.115L459.75 420.491L457.632 418.593L463.521 434.131L461.544 432.316L465.866 440.512L464.52 439.125L465.418 441.931L464.373 440.79L468.658 448.16L467.013 446.465L468.059 449.055L469.106 452.325L467.41 449.919L472.594 460.877L470.773 458.309L478.437 474.579L475.85 472.684L477.62 476.473L475.557 474.598L484.574 491.458L482.287 489.318L484.043 494.55L481.109 491.74L485.687 503.181H484.657C485.457 505.908 485.83 507.419 485.637 507.311C485.601 507.292 485.531 507.272 485.43 507.251L485.476 507.317L485.271 507.224C479.705 506.357 416.771 505.033 416.771 505.033L414.867 504.997L423.836 484.986L420.298 487.701L423.241 480.339L421.769 481.001L426.812 474.26L424.137 475.748L426.946 470.868L423.87 472.853L432.407 456.286L430.842 457.084L432.815 453.764L430.677 455.424L433.308 452.121H432.815L433.582 450.038L431.445 452.801L441.833 433.993L440.1 434.941L441.675 432.188L439.826 433.755L442.633 428.885L441.4 430.155L445.471 421.706L444.149 423.378L447.428 414.84L446.449 415.232L452.23 404.766C452.246 404.727 452.257 404.703 452.261 404.694C452.266 404.686 452.271 404.681 452.277 404.681Z" fill="#1F5C7D"/>
<path fill-rule="evenodd" clip-rule="evenodd" d="M590.821 430.064C595.003 422.121 595.534 416.548 595.606 416.645C597.809 425.002 601.383 430.035 605.151 435.197L602.976 434.278L607.08 440.032L603.906 437.563L606.801 442.414L604.295 440.811L613.023 457.525L611.185 456.658L612.578 459.258L611.185 458.391C611.185 458.391 617.311 467.487 616.754 466.881C616.197 466.274 611.993 462.625 611.993 462.625L621.307 481.693L619.637 480.74L621.531 483.425C621.531 483.425 625.763 489.922 624.872 489.23C624.352 488.825 622.41 487.211 620.882 485.937C621.828 488.433 622.38 489.89 622.38 489.89L614.261 489.758L605.587 488.963L602.449 489.228L588.593 490.07C588.593 490.07 587.057 490.495 585.757 490.918C584.458 491.341 583.732 487.697 583.732 487.697C583.732 487.697 580.324 489.307 578.789 490.494C577.253 491.68 579.095 486.833 579.095 486.833C579.095 486.833 577.253 488.12 575.836 489.731C574.418 491.341 576.662 486.594 576.662 486.594C576.662 486.594 574.623 486.384 571.393 489.033C569.854 490.295 570.619 489.115 572.777 485.33L568.89 488.562C568.89 488.562 572.317 481.646 571.99 481.709C571.663 481.772 576.232 475.111 576.803 474.032C577.373 472.953 574.274 475.682 574.06 475.983C573.846 476.285 576.313 471.811 576.883 470.923C577.454 470.035 582.931 459.203 582.931 459.203C582.931 459.203 582.213 459.659 581.495 460.218C580.777 460.776 582.997 456.36 583.322 455.179C583.648 453.998 581.299 457.071 580.32 458.087C579.342 459.102 580.777 457.071 583.714 452.199C586.65 447.326 590.053 439.285 590.053 439.285C590.053 439.285 588.906 439.929 588.332 440.673C587.758 441.416 589.543 436.509 589.798 435.197C590.053 433.884 587.568 437.352 586.93 438.244C586.295 439.135 588.42 434.622 590.821 430.064Z" fill="#164561"/>
<path fill-rule="evenodd" clip-rule="evenodd" d="M501.865 436.683C506.404 428.063 506.98 422.013 507.059 422.119C509.45 431.189 513.329 436.652 517.418 442.254L515.057 441.258L519.511 447.502L516.067 444.823L519.209 450.088L516.489 448.349L525.963 466.488L523.968 465.549L525.479 468.369L523.968 467.429C523.968 467.429 530.617 477.302 530.012 476.644C529.407 475.985 524.845 472.025 524.845 472.025L534.953 492.72L533.14 491.686L535.195 494.601C535.195 494.601 539.788 501.653 538.821 500.9C538.257 500.462 536.148 498.71 534.491 497.326C535.518 500.035 536.117 501.617 536.117 501.617L527.304 501.473L517.889 500.611L514.484 500.898L499.445 501.812C499.445 501.812 497.779 502.272 496.368 502.733C494.958 503.193 494.17 499.237 494.17 499.237C494.17 499.237 490.472 500.985 488.806 502.273C487.139 503.561 489.138 498.301 489.138 498.301C489.138 498.301 487.139 499.698 485.601 501.446C484.062 503.194 486.498 498.041 486.498 498.041C486.498 498.041 484.285 497.812 480.779 500.688C479.109 502.058 479.939 500.777 482.282 496.669L478.063 500.176C478.063 500.176 481.782 492.67 481.428 492.739C481.074 492.807 486.032 485.578 486.651 484.407C487.271 483.236 483.907 486.198 483.675 486.524C483.444 486.851 486.12 481.996 486.739 481.032C487.359 480.068 493.302 468.311 493.302 468.311C493.302 468.311 492.523 468.807 491.744 469.414C490.965 470.02 493.373 465.227 493.727 463.945C494.082 462.663 491.531 465.999 490.469 467.1C489.407 468.202 490.965 465.998 494.152 460.71C497.339 455.421 501.032 446.694 501.032 446.694C501.032 446.694 499.787 447.394 499.164 448.201C498.542 449.008 500.479 443.682 500.756 442.258C501.033 440.833 498.334 444.596 497.643 445.565C496.954 446.528 499.26 441.629 501.865 436.683Z" fill="#164561"/>
<path fill-rule="evenodd" clip-rule="evenodd" d="M465.998 442.047C470.181 434.104 470.711 428.531 470.783 428.628C472.986 436.985 476.56 442.018 480.329 447.18L478.153 446.262L482.257 452.015L479.083 449.546L481.978 454.397L479.472 452.795L488.201 469.508L486.363 468.642L487.755 471.241L486.363 470.375C486.363 470.375 492.488 479.471 491.931 478.864C491.374 478.258 487.17 474.609 487.17 474.609L496.484 493.677L494.814 492.723L496.708 495.409C496.708 495.409 500.94 501.906 500.049 501.213C499.529 500.808 497.587 499.194 496.059 497.92C497.006 500.416 497.558 501.874 497.558 501.874L489.437 501.741L480.763 500.946L477.625 501.211L463.769 502.054C463.769 502.054 462.233 502.477 460.934 502.902C459.634 503.325 458.908 499.68 458.908 499.68C458.908 499.68 455.501 501.291 453.965 502.477C452.429 503.663 454.271 498.817 454.271 498.817C454.271 498.817 452.429 500.103 451.012 501.714C449.594 503.325 451.839 498.577 451.839 498.577C451.839 498.577 449.8 498.367 446.57 501.016C445.031 502.278 445.796 501.098 447.954 497.314L444.068 500.545C444.068 500.545 447.494 493.629 447.167 493.692C446.84 493.756 451.409 487.094 451.98 486.015C452.55 484.937 449.451 487.665 449.237 487.966C449.024 488.267 451.49 483.794 452.061 482.906C452.631 482.017 458.108 471.185 458.108 471.185C458.108 471.185 457.39 471.642 456.672 472.201C455.954 472.759 458.174 468.342 458.5 467.161C458.825 465.98 456.476 469.054 455.498 470.069C454.519 471.085 455.954 469.054 458.891 464.181C461.827 459.308 465.23 451.267 465.23 451.267C465.23 451.267 464.083 451.912 463.509 452.655C462.936 453.398 464.72 448.492 464.975 447.179C465.229 445.866 462.744 449.334 462.106 450.227C461.473 451.119 463.598 446.605 465.998 442.047Z" fill="#164561"/>
<path fill-rule="evenodd" clip-rule="evenodd" d="M422.769 492.938L412.917 497.406L419.075 483.192C419.075 483.192 417.667 484.201 417.051 484.942C416.436 485.683 418.723 481.573 419.075 480.63C419.427 479.687 416.699 483.192 416.699 483.192L423.603 462.577C423.603 462.577 421.703 465.272 421.21 465.811C420.718 466.351 424.518 458.374 424.8 457.834C425.081 457.295 424.166 458.427 423.603 458.966C423.041 459.505 425.011 455.246 425.011 455.246C425.011 455.246 423.463 457.402 422.689 458.48C421.915 459.558 430.337 436.097 430.337 436.097L427.973 438.577L431.182 430.084C431.182 430.084 430.449 430.86 429.999 431.334C429.549 431.808 432.196 427.066 432.364 426.591C432.533 426.117 430.957 427.927 430.168 428.833C429.38 429.739 436.305 415.165 436.546 414.668C436.562 414.634 436.572 414.665 436.579 414.752L440.334 424.327L439.077 423.086L442.674 434.955L440.749 433.06C440.749 433.06 444.61 442.944 444.384 442.671C444.156 442.397 443.281 441.237 443.281 441.237C443.281 441.237 444.805 445.204 444.578 444.907C444.351 444.609 443.637 443.764 443.637 443.764C443.637 443.764 450.496 460.688 450.053 459.96C449.61 459.233 447.202 456.71 447.202 456.71L450.053 462.289L448.913 461.61C448.913 461.61 454.589 477.601 454.415 477.116C454.24 476.63 450.915 471.74 451.073 472.265C451.231 472.791 452.604 475.862 452.234 475.539C451.865 475.216 451.496 475.134 451.496 475.134C451.496 475.134 454.226 481.586 456.895 486.834C456.922 486.888 454.415 485.072 454.415 485.072L455.788 488.829C455.788 488.829 458.675 495.066 457.644 494.356C456.613 493.646 452.283 492.948 452.283 492.948L439.259 492.896L422.769 492.938Z" fill="#164561"/>
<path fill-rule="evenodd" clip-rule="evenodd" d="M532.971 505.257L519.565 510.463L527.944 493.9C527.944 493.9 526.029 495.075 525.191 495.939C524.352 496.802 527.465 492.013 527.944 490.914C528.423 489.815 524.711 493.899 524.711 493.899L534.106 469.877C534.106 469.877 531.521 473.017 530.851 473.645C530.181 474.273 535.351 464.977 535.735 464.35C536.118 463.721 534.873 465.04 534.106 465.669C533.341 466.297 536.022 461.335 536.022 461.335C536.022 461.335 533.915 463.848 532.862 465.104C531.808 466.36 543.268 439.022 543.268 439.022L540.052 441.912L544.419 432.013C544.419 432.013 543.422 432.918 542.81 433.47C542.197 434.023 545.797 428.496 546.027 427.943C546.257 427.39 544.111 429.501 543.04 430.556C541.968 431.611 551.389 414.628 551.717 414.049C551.739 414.01 551.753 414.046 551.762 414.147L556.871 425.304L555.162 423.857L560.056 437.689L557.437 435.481C557.437 435.481 562.691 446.999 562.383 446.681C562.074 446.362 560.883 445.01 560.883 445.01C560.883 445.01 562.956 449.633 562.648 449.287C562.339 448.939 561.369 447.955 561.369 447.955C561.369 447.955 570.701 467.678 570.098 466.83C569.495 465.982 566.22 463.042 566.22 463.042L570.098 469.542L568.547 468.751C568.547 468.751 576.27 487.387 576.032 486.822C575.794 486.257 571.27 480.557 571.485 481.17C571.7 481.781 573.567 485.362 573.065 484.985C572.562 484.609 572.06 484.514 572.06 484.514C572.06 484.514 575.776 492.033 579.405 498.148C579.443 498.21 576.032 496.095 576.032 496.095L577.9 500.472C577.9 500.472 581.828 507.74 580.425 506.912C579.022 506.084 573.131 505.271 573.131 505.271L555.409 505.21L532.971 505.257Z" fill="#164561"/>
<path fill-rule="evenodd" clip-rule="evenodd" d="M12.228 281.632C21.177 266.577 22.6662 255.808 22.8034 256.003C26.5408 272.405 33.2676 282.478 40.3709 292.812L36.1097 290.846L43.8369 302.36L37.707 297.299L43.0978 306.958L38.2308 303.635L54.3161 336.809L50.7229 334.971L53.2946 340.132L50.5887 338.332C50.5887 338.332 62.0824 356.504 61.0209 355.28C59.9593 354.056 51.8696 346.615 51.8696 346.615L68.9374 384.409L65.6836 382.418L69.2458 387.79C69.2458 387.79 77.1703 400.758 75.4498 399.338C74.4454 398.509 70.7019 395.211 67.7576 392.608C69.4491 397.532 70.4335 400.407 70.4335 400.407L54.2701 399.457L37.0551 397.174L30.786 397.421L3.1218 397.873C3.1218 397.873 0.0303116 398.565 -2.59049 399.276C-5.2113 399.987 -6.37399 392.852 -6.37399 392.852C-6.37399 392.852 -13.287 395.687 -16.4376 397.859C-19.5882 400.031 -15.5423 390.783 -15.5423 390.783C-15.5423 390.783 -19.3108 393.123 -22.259 396.127C-25.2073 399.131 -20.3683 390.111 -20.3683 390.111C-20.3683 390.111 -24.4142 389.528 -31.0528 394.393C-34.2154 396.711 -32.6001 394.485 -28.0064 387.326L-36 393.264C-36 393.264 -28.6373 380.137 -29.2923 380.232C-29.9472 380.328 -20.3302 367.79 -19.1085 365.747C-17.8877 363.702 -24.274 368.732 -24.7216 369.299C-25.1693 369.865 -19.9106 361.397 -18.7039 359.722C-17.4971 358.047 -5.74707 337.497 -5.74707 337.497C-5.74707 337.497 -7.2122 338.322 -8.68534 339.345C-10.1585 340.367 -5.39557 331.988 -4.65349 329.723C-3.91141 327.459 -8.83055 333.221 -10.8585 335.108C-12.8874 336.994 -9.87006 333.177 -3.64102 323.973C2.58702 314.768 9.98977 299.456 9.98977 299.456C9.98977 299.456 7.65438 300.608 6.45464 302.003C5.2549 303.397 9.19061 294.026 9.8005 291.503C10.4104 288.978 5.1898 295.493 3.85086 297.17C2.50991 298.847 7.09257 290.271 12.228 281.632Z" fill="#265E73"/>
<path fill-rule="evenodd" clip-rule="evenodd" d="M198.025 289.591C206.974 274.536 208.463 263.767 208.6 263.961C212.338 280.364 219.064 290.436 226.168 300.772L221.906 298.805L229.635 310.318L223.504 305.257L228.895 314.917L224.028 311.594L240.113 344.768L236.52 342.93L239.09 348.092L236.384 346.291C236.384 346.291 247.878 364.463 246.817 363.24C245.754 362.016 237.665 354.575 237.665 354.575L254.733 392.369L251.479 390.377L255.043 395.75C255.043 395.75 262.967 408.718 261.247 407.298C260.242 406.468 256.499 403.17 253.554 400.568C255.246 405.491 256.23 408.367 256.23 408.367L240.067 407.418L222.853 405.134L216.584 405.38L188.92 405.833C188.92 405.833 185.828 406.524 183.207 407.236C180.586 407.947 179.424 400.812 179.424 400.812C179.424 400.812 172.511 403.646 169.36 405.818C166.21 407.99 170.255 398.743 170.255 398.743C170.255 398.743 166.487 401.082 163.538 404.086C160.589 407.091 165.428 398.071 165.428 398.071C165.428 398.071 161.383 397.488 154.744 402.354C151.581 404.671 153.197 402.446 157.79 395.286L149.797 401.226C149.797 401.226 157.158 388.099 156.503 388.194C155.849 388.289 165.465 375.752 166.687 373.709C167.908 371.664 161.522 376.694 161.074 377.26C160.626 377.827 165.885 369.359 167.092 367.684C168.299 366.009 180.049 345.459 180.049 345.459C180.049 345.459 178.584 346.284 177.11 347.307C175.637 348.329 180.4 339.95 181.142 337.685C181.884 335.421 176.965 341.183 174.937 343.07C172.908 344.956 175.926 341.138 182.155 331.934C188.383 322.729 195.786 307.418 195.786 307.418C195.786 307.418 193.45 308.57 192.25 309.964C191.05 311.359 194.986 301.988 195.596 299.464C196.206 296.939 190.986 303.455 189.647 305.132C188.306 306.806 192.889 298.229 198.025 289.591Z" fill="#265E73"/>
<path fill-rule="evenodd" clip-rule="evenodd" d="M254.232 296.153C263.181 281.098 264.671 270.329 264.808 270.523C268.545 286.926 275.272 296.998 282.375 307.333L278.114 305.366L285.841 316.879L279.711 311.818L285.102 321.478L280.235 318.155L296.321 351.329L292.727 349.49L295.299 354.652L292.593 352.851C292.593 352.851 304.087 371.023 303.025 369.8C301.963 368.576 293.874 361.135 293.874 361.135L310.942 398.929L307.688 396.937L311.25 402.31C311.25 402.31 319.175 415.278 317.454 413.858C316.45 413.028 312.706 409.73 309.762 407.128C311.453 412.051 312.438 414.927 312.438 414.927L296.274 413.977L279.059 411.694L272.79 411.94L245.126 412.393C245.126 412.393 242.035 413.084 239.414 413.795C236.793 414.507 235.63 407.372 235.63 407.372C235.63 407.372 228.717 410.206 225.567 412.378C222.416 414.55 226.462 405.303 226.462 405.303C226.462 405.303 222.694 407.641 219.745 410.646C216.797 413.651 221.636 404.631 221.636 404.631C221.636 404.631 217.59 404.048 210.952 408.912C207.789 411.23 209.404 409.005 213.998 401.845L206.004 407.784C206.004 407.784 213.366 394.657 212.712 394.752C212.057 394.847 221.674 382.31 222.896 380.265C224.118 378.221 217.73 383.251 217.283 383.817C216.835 384.384 222.094 375.916 223.301 374.241C224.507 372.566 236.257 352.016 236.257 352.016C236.257 352.016 234.792 352.842 233.319 353.864C231.846 354.886 236.609 346.507 237.351 344.242C238.093 341.978 233.174 347.74 231.146 349.627C229.117 351.513 232.134 347.695 238.363 338.491C244.591 329.286 251.994 313.975 251.994 313.975C251.994 313.975 249.659 315.127 248.459 316.521C247.258 317.916 251.195 308.546 251.805 306.021C252.415 303.496 247.194 310.012 245.856 311.689C244.514 313.368 249.097 304.791 254.232 296.153Z" fill="#265E73"/>
<path fill-rule="evenodd" clip-rule="evenodd" d="M212.133 396.611L193.954 403.738L206.126 379.111C206.126 379.111 203.502 380.783 202.333 382.044C201.164 383.305 205.602 376.224 206.307 374.585C207.012 372.947 201.818 378.927 201.818 378.927L215.798 343.049C215.798 343.049 212.161 347.662 211.23 348.576C210.299 349.49 217.753 335.695 218.302 334.764C218.851 333.834 217.112 335.762 216.053 336.671C214.994 337.579 218.868 330.212 218.868 330.212C218.868 330.212 215.909 333.9 214.429 335.744C212.948 337.587 229.881 296.802 229.881 296.802L225.419 300.998L231.839 286.244C231.839 286.244 230.456 287.557 229.607 288.361C228.756 289.163 233.89 280.991 234.23 280.167C234.57 279.343 231.583 282.419 230.09 283.957C228.597 285.495 242.185 260.291 242.657 259.431C242.689 259.374 242.705 259.43 242.711 259.583L248.841 276.788L246.65 274.497L252.333 295.744L248.976 292.247C248.976 292.247 255.278 310.006 254.886 309.506C254.494 309.006 252.989 306.887 252.989 306.887C252.989 306.887 255.471 314.013 255.081 313.468C254.69 312.924 253.457 311.377 253.457 311.377C253.457 311.377 264.695 341.805 263.942 340.485C263.19 339.165 259.004 334.523 259.004 334.523L263.777 344.598L261.758 343.31C261.758 343.31 270.917 371.997 270.634 371.128C270.352 370.257 264.67 361.36 264.919 362.301C265.169 363.241 267.441 368.774 266.793 368.174C266.145 367.575 265.482 367.403 265.482 367.403C265.482 367.403 269.976 379.012 274.442 388.488C274.488 388.585 270.07 385.184 270.07 385.184L272.295 391.925C272.295 391.925 277.087 403.166 275.268 401.831C273.449 400.495 265.648 398.927 265.648 398.927L242.036 397.823L212.133 396.611Z" fill="#1F677D"/>
<path fill-rule="evenodd" clip-rule="evenodd" d="M147.574 274.422C147.586 274.422 147.595 274.44 147.601 274.477L155.675 290.717L153.287 288.464L156.862 295.725L154.092 293.098L161.249 313.951L158.667 311.439L164.089 322.51L162.337 320.6L163.405 324.356L162.05 322.788L167.467 332.766L165.327 330.431L166.609 333.91L167.855 338.288L165.684 335.014L172.128 349.779L169.797 346.284L179.321 368.204L175.915 365.553L178.113 370.658L175.416 368.064L186.742 390.843L183.755 387.885L185.858 394.894L182.032 391.016L187.628 406.384L186.233 406.324C187.172 409.969 187.598 411.985 187.341 411.833C187.294 411.805 187.201 411.775 187.064 411.742L187.123 411.831L186.85 411.696C179.354 410.229 94.148 404.829 94.148 404.829L91.5692 404.67L104.781 378.777L99.8442 382.154L104.222 372.608L102.193 373.396L109.382 364.789L105.679 366.599L109.744 360.32L105.47 362.762L117.915 341.389L115.752 342.351L118.6 338.083L115.617 340.151L119.356 335.943L118.688 335.914L119.836 333.209L116.795 336.732L131.866 312.508L129.466 313.659L131.747 310.118L129.158 312.078L133.221 305.813L131.483 307.419L137.447 296.502L135.566 298.631L140.46 287.552L139.114 288.012L147.501 274.533C147.524 274.482 147.54 274.451 147.546 274.44C147.559 274.428 147.567 274.421 147.574 274.422Z" fill="#265E73"/>
<path fill-rule="evenodd" clip-rule="evenodd" d="M143.49 402.648L125.31 409.775L137.482 385.148C137.482 385.148 134.858 386.82 133.689 388.081C132.521 389.342 136.958 382.261 137.663 380.623C138.368 378.984 133.176 384.964 133.176 384.964L147.155 349.086C147.155 349.086 143.519 353.699 142.587 354.612C141.656 355.526 149.111 341.731 149.66 340.802C150.208 339.872 148.47 341.8 147.41 342.709C146.352 343.616 150.225 336.249 150.225 336.249C150.225 336.249 147.266 339.937 145.786 341.781C144.306 343.625 161.238 302.839 161.238 302.839L156.776 307.036L163.196 292.281C163.196 292.281 161.813 293.595 160.964 294.398C160.114 295.2 165.247 287.028 165.588 286.204C165.927 285.379 162.941 288.456 161.448 289.994C159.954 291.533 173.542 266.329 174.014 265.468C174.046 265.411 174.062 265.466 174.068 265.621L180.198 282.826L178.008 280.535L183.69 301.781L180.333 298.284C180.333 298.284 186.635 316.043 186.244 315.543C185.851 315.043 184.346 312.924 184.346 312.924C184.346 312.924 186.828 320.049 186.438 319.506C186.047 318.961 184.815 317.415 184.815 317.415C184.815 317.415 196.052 347.842 195.3 346.522C194.548 345.202 190.362 340.559 190.362 340.559L195.135 350.634L193.116 349.346C193.116 349.346 202.274 378.034 201.992 377.163C201.709 376.292 196.027 367.395 196.276 368.336C196.527 369.277 198.797 374.81 198.15 374.21C197.503 373.61 196.839 373.438 196.839 373.438C196.839 373.438 201.334 385.047 205.799 394.523C205.845 394.621 201.428 391.219 201.428 391.219L203.652 397.96C203.652 397.96 208.444 409.201 206.625 407.866C204.807 406.53 197.005 404.962 197.005 404.962L173.393 403.859L143.49 402.648Z" fill="#1F677D"/>
<path fill-rule="evenodd" clip-rule="evenodd" d="M112.519 275.887C112.531 275.888 112.54 275.905 112.546 275.941L120.62 292.182L118.232 289.929L121.807 297.19L119.037 294.563L126.194 315.416L123.612 312.904L129.034 323.975L127.282 322.065L128.35 325.82L126.995 324.253L132.412 334.23L130.272 331.896L131.554 335.375L132.8 339.753L130.629 336.479L137.073 351.244L134.742 347.749L144.266 369.669L140.86 367.018L143.058 372.123L140.361 369.528L151.687 392.308L148.7 389.349L150.803 396.359L146.977 392.481L152.573 407.848L151.178 407.788C152.117 411.434 152.543 413.45 152.286 413.298C152.239 413.27 152.146 413.24 152.009 413.206L152.068 413.296L151.795 413.161C144.299 411.694 59.093 406.293 59.093 406.293L56.5143 406.135L69.7265 380.242L64.7893 383.618L69.1667 374.073L67.1377 374.861L74.3281 366.254L70.6248 368.064L74.6897 361.785L70.4165 364.227L82.8615 342.853L80.6984 343.816L83.5465 339.548L80.5632 341.615L84.3016 337.407L83.6337 337.378L84.7823 334.673L81.7409 338.197L96.8118 313.973L94.4123 315.124L96.6926 311.582L94.1039 313.543L98.1668 307.278L96.4292 308.883L102.393 297.966L100.512 300.096L105.406 289.017L104.06 289.477L112.447 275.997C112.471 275.947 112.487 275.916 112.493 275.905C112.504 275.893 112.512 275.887 112.519 275.887Z" fill="#1F677D"/>
<path fill-rule="evenodd" clip-rule="evenodd" d="M60.1146 273.642C60.1266 273.642 60.1356 273.661 60.1416 273.697L68.2163 289.937L65.8279 287.685L69.4031 294.946L66.633 292.318L73.7904 313.171L71.2077 310.66L76.6295 321.73L74.878 319.82L75.9456 323.576L74.5906 322.009L80.0075 331.986L77.8673 329.652L79.1492 333.131L80.395 337.509L78.2239 334.234L84.6682 348.999L82.3368 345.505L91.8607 367.425L88.4547 364.774L90.6529 369.878L87.956 367.284L99.2824 390.064L96.2951 387.105L98.3981 394.114L94.5716 390.237L100.168 405.604L98.7727 405.544C99.7121 409.19 100.138 411.205 99.8813 411.053C99.8342 411.025 99.7411 410.995 99.6039 410.962L99.663 411.051L99.3896 410.917C91.8937 409.45 6.688 404.049 6.688 404.049L4.10925 403.891L17.3214 377.997L12.3843 381.374L16.7616 371.829L14.7327 372.616L21.9221 364.01L18.2187 365.819L22.2836 359.541L18.0104 361.983L30.4555 340.609L28.2924 341.572L31.1405 337.304L28.1572 339.371L31.8956 335.163L31.2276 335.134L32.3763 332.429L29.3349 335.953L44.4068 311.728L42.0073 312.879L44.2876 309.338L41.6988 311.299L45.7617 305.034L44.0242 306.639L49.9879 295.722L48.1071 297.851L53.0012 286.773L51.6553 287.232L60.0425 273.753C60.0665 273.702 60.0815 273.671 60.0875 273.661C60.0995 273.648 60.1076 273.642 60.1146 273.642Z" fill="#1F677D"/>
<path fill-rule="evenodd" clip-rule="evenodd" d="M246.499 334.011C252.587 323.769 253.6 316.443 253.694 316.575C256.236 327.734 260.813 334.586 265.645 341.617L262.746 340.28L268.003 348.112L263.833 344.669L267.501 351.241L264.19 348.98L275.133 371.548L272.688 370.298L274.438 373.809L272.597 372.584C272.597 372.584 280.416 384.947 279.694 384.114C278.972 383.282 273.469 378.22 273.469 378.22L285.08 403.931L282.867 402.576L285.29 406.231C285.29 406.231 290.681 415.053 289.511 414.087C288.828 413.523 286.28 411.28 284.278 409.509C285.429 412.859 286.099 414.814 286.099 414.814L275.103 414.168L263.391 412.615L259.125 412.783L240.304 413.091C240.304 413.091 238.201 413.561 236.419 414.045C234.636 414.529 233.845 409.675 233.845 409.675C233.845 409.675 229.142 411.604 226.998 413.081C224.855 414.558 227.607 408.268 227.607 408.268C227.607 408.268 225.043 409.859 223.037 411.903C221.031 413.947 224.323 407.811 224.323 407.811C224.323 407.811 221.571 407.415 217.054 410.724C214.903 412.301 216.002 410.787 219.126 405.916L213.689 409.956C213.689 409.956 218.697 401.025 218.251 401.091C217.806 401.156 224.348 392.627 225.179 391.235C226.01 389.845 221.665 393.267 221.361 393.652C221.056 394.037 224.633 388.276 225.455 387.136C226.275 385.996 234.269 372.016 234.269 372.016C234.269 372.016 233.273 372.578 232.271 373.273C231.268 373.967 234.509 368.268 235.014 366.727C235.518 365.187 232.172 369.107 230.792 370.391C229.412 371.674 231.465 369.077 235.702 362.815C239.94 356.553 244.975 346.136 244.975 346.136C244.975 346.136 243.387 346.921 242.569 347.868C241.753 348.816 244.43 342.441 244.846 340.724C245.26 339.007 241.709 343.439 240.799 344.58C239.888 345.722 243.006 339.888 246.499 334.011Z" fill="#164D61"/>
<path fill-rule="evenodd" clip-rule="evenodd" d="M125.614 318.763C132.221 307.648 133.321 299.696 133.422 299.84C136.182 311.951 141.148 319.388 146.394 327.019L143.247 325.568L148.953 334.069L144.426 330.332L148.406 337.464L144.813 335.011L156.69 359.505L154.037 358.147L155.936 361.959L153.938 360.63C153.938 360.63 162.424 374.047 161.64 373.143C160.856 372.24 154.883 366.746 154.883 366.746L167.485 394.651L165.083 393.18L167.714 397.146C167.714 397.146 173.565 406.721 172.294 405.672C171.552 405.061 168.788 402.625 166.615 400.703C167.864 404.339 168.591 406.462 168.591 406.462L156.657 405.761L143.946 404.076L139.318 404.258L118.892 404.593C118.892 404.593 116.61 405.103 114.674 405.629C112.739 406.155 111.881 400.886 111.881 400.886C111.881 400.886 106.776 402.979 104.45 404.582C102.124 406.186 105.111 399.358 105.111 399.358C105.111 399.358 102.328 401.084 100.152 403.303C97.9745 405.521 101.548 398.861 101.548 398.861C101.548 398.861 98.5604 398.43 93.6593 402.022C91.3239 403.733 92.5166 402.091 95.9085 396.804L90.006 401.189C90.006 401.189 95.4419 391.496 94.9582 391.567C94.4745 391.637 101.576 382.38 102.477 380.871C103.378 379.362 98.6636 383.075 98.3321 383.493C98.0016 383.911 101.884 377.659 102.776 376.422C103.667 375.185 112.342 360.012 112.342 360.012C112.342 360.012 111.261 360.622 110.172 361.376C109.085 362.131 112.601 355.944 113.149 354.272C113.696 352.6 110.065 356.855 108.567 358.248C107.069 359.64 109.297 356.822 113.896 350.026C118.494 343.23 123.959 331.924 123.959 331.924C123.959 331.924 122.235 332.775 121.349 333.804C120.463 334.833 123.369 327.915 123.82 326.051C124.271 324.187 120.416 328.997 119.428 330.237C118.438 331.474 121.822 325.141 125.614 318.763Z" fill="#164D61"/>
<path fill-rule="evenodd" clip-rule="evenodd" d="M76.7297 323.762C82.8175 313.52 83.831 306.194 83.9241 306.327C86.4668 317.486 91.0434 324.338 95.8755 331.369L92.9762 330.032L98.2339 337.864L94.0638 334.421L97.7311 340.992L94.4203 338.731L105.363 361.3L102.919 360.049L104.668 363.561L102.828 362.336C102.828 362.336 110.647 374.698 109.925 373.866C109.203 373.033 103.7 367.972 103.7 367.972L115.311 393.683L113.097 392.328L115.521 395.983C115.521 395.983 120.912 404.805 119.741 403.839C119.058 403.275 116.51 401.032 114.509 399.26C115.659 402.61 116.329 404.566 116.329 404.566L105.333 403.92L93.6212 402.367L89.356 402.535L70.5357 402.842C70.5357 402.842 68.4326 403.312 66.65 403.797C64.8674 404.281 64.0763 399.427 64.0763 399.427C64.0763 399.427 59.3735 401.356 57.2303 402.833C55.0872 404.31 57.8392 398.019 57.8392 398.019C57.8392 398.019 55.2755 399.61 53.2696 401.655C51.2637 403.698 54.5555 397.563 54.5555 397.563C54.5555 397.563 51.8035 397.166 47.2869 400.476C45.1358 402.052 46.2344 400.539 49.3589 395.667L43.921 399.708C43.921 399.708 48.9293 390.777 48.4836 390.842C48.038 390.907 54.5805 382.378 55.4117 380.987C56.2429 379.597 51.8976 383.018 51.5932 383.403C51.2887 383.788 54.8659 378.027 55.6871 376.888C56.5073 375.748 64.5019 361.768 64.5019 361.768C64.5019 361.768 63.5055 362.33 62.503 363.024C61.5005 363.719 64.7413 358.019 65.246 356.479C65.7507 354.938 62.4049 358.859 61.0249 360.142C59.6449 361.426 61.6978 358.829 65.935 352.567C70.1721 346.305 75.2074 335.888 75.2074 335.888C75.2074 335.888 73.6191 336.672 72.802 337.62C71.9858 338.568 74.6627 332.193 75.0783 330.477C75.4929 328.759 71.9417 333.192 71.0314 334.333C70.1181 335.474 73.2366 329.639 76.7297 323.762Z" fill="#164D61"/>
<path fill-rule="evenodd" clip-rule="evenodd" d="M15.4617 388.43L1.87598 393.756L10.9722 375.353C10.9722 375.353 9.01134 376.602 8.13807 377.544C7.2648 378.486 10.5806 373.194 11.1074 371.969C11.6341 370.745 7.75351 375.214 7.75351 375.214L18.1997 348.402C18.1997 348.402 15.4827 351.849 14.7867 352.533C14.0907 353.216 19.6618 342.906 20.0724 342.212C20.482 341.516 19.1831 342.958 18.392 343.636C17.6008 344.315 20.496 338.809 20.496 338.809C20.496 338.809 18.2848 341.566 17.1782 342.944C16.0726 344.321 28.726 313.841 28.726 313.841L25.3911 316.978L30.1871 305.951C30.1871 305.951 29.1536 306.933 28.5187 307.533C27.8827 308.132 31.7193 302.025 31.9737 301.409C32.227 300.793 29.9948 303.093 28.8802 304.242C27.7646 305.392 37.9183 286.555 38.2708 285.913C38.2949 285.87 38.3069 285.912 38.3119 286.026L42.8925 298.884L41.2561 297.171L45.5023 313.049L42.9937 310.436C42.9937 310.436 47.7035 323.708 47.4111 323.334C47.1177 322.96 45.993 321.376 45.993 321.376C45.993 321.376 47.8477 326.701 47.5563 326.296C47.2649 325.889 46.3425 324.732 46.3425 324.732C46.3425 324.732 54.7407 347.472 54.1779 346.485C53.6161 345.498 50.4876 342.03 50.4876 342.03L54.0547 349.558L52.5465 348.596C52.5465 348.596 59.3905 370.035 59.1802 369.384C58.9689 368.733 54.7227 362.083 54.909 362.786C55.0962 363.489 56.7927 367.624 56.309 367.175C55.8253 366.727 55.3296 366.599 55.3296 366.599C55.3296 366.599 58.6885 375.274 62.0253 382.357C62.0604 382.429 58.7586 379.888 58.7586 379.888L60.421 384.926C60.421 384.926 64.0022 393.327 62.6422 392.329C61.2832 391.331 55.4528 390.159 55.4528 390.159L37.8071 389.334L15.4617 388.43Z" fill="#164D61"/>
<path fill-rule="evenodd" clip-rule="evenodd" d="M164.133 411.087L145.693 417.182L157.923 395.805C157.923 395.805 155.266 397.245 154.084 398.336C152.903 399.427 157.374 393.286 158.08 391.863C158.787 390.439 153.542 395.616 153.542 395.616L167.543 364.451C167.543 364.451 163.874 368.446 162.933 369.237C161.991 370.026 169.489 358.056 170.042 357.25C170.595 356.444 168.838 358.112 167.767 358.897C166.696 359.682 170.591 353.287 170.591 353.287C170.591 353.287 167.604 356.482 166.109 358.078C164.615 359.675 181.591 324.252 181.591 324.252L177.079 327.88L183.52 315.068C183.52 315.068 182.122 316.203 181.262 316.898C180.402 317.592 185.574 310.506 185.915 309.789C186.256 309.073 183.237 311.734 181.729 313.065C180.22 314.395 193.886 292.525 194.36 291.778C194.392 291.728 194.409 291.777 194.416 291.91L200.749 306.935L198.508 304.926L204.409 323.468L200.976 320.401C200.976 320.401 207.486 335.91 207.085 335.472C206.682 335.034 205.14 333.179 205.14 333.179C205.14 333.179 207.705 339.401 207.305 338.925C206.906 338.449 205.642 337.093 205.642 337.093C205.642 337.093 217.244 363.668 216.472 362.514C215.699 361.36 211.416 357.289 211.416 357.289L216.327 366.095L214.267 364.96C214.267 364.96 223.746 390.007 223.454 389.247C223.161 388.487 217.333 380.7 217.591 381.521C217.852 382.342 220.192 387.177 219.53 386.65C218.869 386.123 218.193 385.969 218.193 385.969C218.193 385.969 222.83 396.109 227.424 404.393C227.472 404.478 222.962 401.487 222.962 401.487L225.262 407.373C225.262 407.373 230.2 417.195 228.343 416.021C226.486 414.847 218.547 413.432 218.547 413.432L194.536 412.324L164.133 411.087Z" fill="#164D61"/>
</g>
<defs>
<clipPath id="clip0_22_9718">
<rect width="750" height="500" fill="white"/>
</clipPath>
</defs>
</svg>
