<svg width="750" height="500" viewBox="0 0 750 500" fill="none" xmlns="http://www.w3.org/2000/svg">
<g clip-path="url(#clip0_22_9625)">
<path fill-rule="evenodd" clip-rule="evenodd" d="M27.6557 43.332C31.3167 35.123 39.1887 29.439 48.3027 29.439C58.4667 29.439 67.0877 36.508 70.0427 46.266C71.4147 45.968 72.8467 45.811 74.3197 45.811C82.5777 45.811 89.5767 50.76 91.9327 57.575C93.5787 57.107 95.3317 56.855 97.1487 56.855C106.656 56.855 114.374 63.76 114.374 72.267C114.374 74.913 113.626 77.404 112.312 79.581C124.315 80.809 155.338 82.656 158.086 83.537C161.434 84.612 129.383 85.493 118.935 86.304C116.74 86.474 114.374 87.812 114.374 88.692C114.374 97.757 103.899 105.117 90.9977 105.117C85.8227 105.117 81.0387 103.933 77.1637 101.929C74.0257 106.276 68.5187 109.161 62.2567 109.161C56.4847 109.161 51.3547 106.71 48.1287 102.923C44.5927 105.533 39.6327 107.155 34.1457 107.155C27.7687 107.155 22.1037 104.962 18.5567 101.578C14.6967 103.751 9.11367 105.118 2.90867 105.118C-8.65033 105.118 -18.0493 100.377 -18.1773 94.513C-22.1303 94.018 -27.3693 93.427 -34.4223 93.322C-49.7543 93.092 -78.9193 92.757 -80.8603 91.611C-82.7943 90.469 -64.4223 87.631 -39.4813 86.073C-40.1953 85.132 -40.6003 84.061 -40.6003 82.923C-40.6003 79.195 -36.2533 76.169 -30.8983 76.169C-28.7313 76.169 -26.7303 76.664 -25.1153 77.501C-24.8023 71.236 -17.9663 66.222 -9.59133 66.222C-8.67333 66.222 -7.77333 66.281 -6.89833 66.398C-5.95033 63.143 -3.81833 60.322 -0.946327 58.338C-0.130325 48.984 8.54367 41.613 19.1077 41.613C22.1627 41.613 25.0607 42.229 27.6557 43.332Z" fill="#EFF2FF"/>
<path d="M27.6557 43.332C31.3167 35.123 39.1887 29.439 48.3027 29.439C58.4667 29.439 67.0877 36.508 70.0427 46.266C71.4147 45.968 72.8467 45.811 74.3197 45.811C82.5777 45.811 89.5767 50.76 91.9327 57.575C93.5787 57.107 95.3317 56.855 97.1487 56.855C106.656 56.855 114.374 63.76 114.374 72.267C114.374 74.913 113.626 77.404 112.312 79.581C124.315 80.809 155.338 82.656 158.086 83.537C161.434 84.612 129.383 85.493 118.935 86.304C116.74 86.474 114.374 87.812 114.374 88.692C114.374 97.757 103.899 105.117 90.9977 105.117C85.8227 105.117 81.0387 103.933 77.1637 101.929C74.0257 106.276 68.5187 109.161 62.2567 109.161C56.4847 109.161 51.3547 106.71 48.1287 102.923C44.5927 105.533 39.6327 107.155 34.1457 107.155C27.7687 107.155 22.1037 104.962 18.5567 101.578C14.6967 103.751 9.11367 105.118 2.90867 105.118C-8.65033 105.118 -18.0493 100.377 -18.1773 94.513C-22.1303 94.018 -27.3693 93.427 -34.4223 93.322C-49.7543 93.092 -78.9193 92.757 -80.8603 91.611C-82.7943 90.469 -64.4223 87.631 -39.4813 86.073C-40.1953 85.132 -40.6003 84.061 -40.6003 82.923C-40.6003 79.195 -36.2533 76.169 -30.8983 76.169C-28.7313 76.169 -26.7303 76.664 -25.1153 77.501C-24.8023 71.236 -17.9663 66.222 -9.59133 66.222C-8.67333 66.222 -7.77333 66.281 -6.89833 66.398C-5.95033 63.143 -3.81833 60.322 -0.946327 58.338C-0.130325 48.984 8.54367 41.613 19.1077 41.613C22.1627 41.613 25.0607 42.229 27.6557 43.332Z" fill="#EFF2FF"/>
<mask id="mask0_22_9625" style="mask-type:luminance" maskUnits="userSpaceOnUse" x="-81" y="29" width="240" height="81">
<path d="M27.6557 43.332C31.3167 35.123 39.1887 29.439 48.3027 29.439C58.4667 29.439 67.0877 36.508 70.0427 46.266C71.4147 45.968 72.8467 45.811 74.3197 45.811C82.5777 45.811 89.5767 50.76 91.9327 57.575C93.5787 57.107 95.3317 56.855 97.1487 56.855C106.656 56.855 114.374 63.76 114.374 72.267C114.374 74.913 113.626 77.404 112.312 79.581C124.315 80.809 155.338 82.656 158.086 83.537C161.434 84.612 129.383 85.493 118.935 86.304C116.74 86.474 114.374 87.812 114.374 88.692C114.374 97.757 103.899 105.117 90.9977 105.117C85.8227 105.117 81.0387 103.933 77.1637 101.929C74.0257 106.276 68.5187 109.161 62.2567 109.161C56.4847 109.161 51.3547 106.71 48.1287 102.923C44.5927 105.533 39.6327 107.155 34.1457 107.155C27.7687 107.155 22.1037 104.962 18.5567 101.578C14.6967 103.751 9.11367 105.118 2.90867 105.118C-8.65033 105.118 -18.0493 100.377 -18.1773 94.513C-22.1303 94.018 -27.3693 93.427 -34.4223 93.322C-49.7543 93.092 -78.9193 92.757 -80.8603 91.611C-82.7943 90.469 -64.4223 87.631 -39.4813 86.073C-40.1953 85.132 -40.6003 84.061 -40.6003 82.923C-40.6003 79.195 -36.2533 76.169 -30.8983 76.169C-28.7313 76.169 -26.7303 76.664 -25.1153 77.501C-24.8023 71.236 -17.9663 66.222 -9.59133 66.222C-8.67333 66.222 -7.77333 66.281 -6.89833 66.398C-5.95033 63.143 -3.81833 60.322 -0.946327 58.338C-0.130325 48.984 8.54367 41.613 19.1077 41.613C22.1627 41.613 25.0607 42.229 27.6557 43.332Z" fill="white"/>
</mask>
<g mask="url(#mask0_22_9625)">
<path fill-rule="evenodd" clip-rule="evenodd" d="M25.4996 35.7859C29.1596 27.5769 37.0326 21.8929 46.1466 21.8929C56.3096 21.8929 64.9306 28.9619 67.8856 38.7199C69.2576 38.4219 70.6906 38.2649 72.1636 38.2649C80.4216 38.2649 87.4206 43.2139 89.7766 50.0289C91.4226 49.5609 93.1756 49.3089 94.9926 49.3089C104.5 49.3089 114.779 54.4189 114.779 62.9239C114.779 65.5699 117.741 68.7089 116.426 70.8859C128.428 72.1139 160.07 82.6159 162.819 83.4979C166.167 84.5729 127.58 82.0089 117.133 82.8199C114.938 82.9899 112.572 84.3279 112.572 85.2079C112.572 94.2729 101.745 97.5709 88.8426 97.5709C83.6676 97.5709 78.8836 96.3869 75.0086 94.3829C71.8706 98.7299 66.3636 101.615 60.1006 101.615C54.3286 101.615 49.1986 99.1639 45.9726 95.3769C42.4356 97.9859 37.4766 99.6099 31.9896 99.6099C25.6126 99.6099 19.9476 97.4169 16.4006 94.0319C12.5406 96.2049 6.95761 97.5719 0.752609 97.5719C-10.8064 97.5719 -20.2054 92.8309 -20.3334 86.9669C-22.3434 90.799 -25.6624 90.5939 -32.7144 90.4679C-37.8344 90.3759 -83.6964 91.6969 -85.6384 90.5499C-87.5724 89.4079 -66.5784 80.0849 -41.6384 78.5269C-42.3524 77.5869 -42.7574 76.5149 -42.7574 75.3769C-42.7574 71.6489 -38.4104 68.6229 -33.0554 68.6229C-30.8894 68.6229 -28.8874 69.1179 -27.2724 69.9549C-26.9594 63.6899 -20.1234 58.6749 -11.7484 58.6749C-10.8304 58.6749 -9.9304 58.7349 -9.0554 58.8519C-8.1074 55.5969 -5.9754 52.7759 -3.10339 50.7919C-2.28639 41.4379 6.3866 34.0669 16.9506 34.0669C20.0076 34.0659 22.9036 34.6819 25.4996 35.7859Z" fill="#EFF2FF"/>
</g>
<path fill-rule="evenodd" clip-rule="evenodd" d="M11.4507 82.246C10.3467 87.35 13.2737 92.648 18.4437 94.491C23.4377 96.271 28.8517 94.229 31.3527 89.895C31.2587 90.327 31.1367 90.757 30.9847 91.183C29.0347 96.654 22.8997 99.472 17.2937 97.473C11.6867 95.475 8.71773 89.411 10.6677 83.941C10.8807 83.343 11.1437 82.778 11.4507 82.246Z" fill="#EFF2FF"/>
<path fill-rule="evenodd" clip-rule="evenodd" d="M31.3527 58.8929C27.9727 54.9129 21.9867 54.0139 17.3797 56.9959C12.9287 59.8769 11.2567 65.4169 13.1757 70.0379C12.8907 69.7009 12.6237 69.3429 12.3767 68.9629C9.22065 64.0879 10.7147 57.5039 15.7127 54.2689C20.7087 51.0349 27.3277 52.3659 30.4827 57.2409C30.8277 57.7739 31.1167 58.3259 31.3527 58.8929Z" fill="#EFF2FF"/>
<path fill-rule="evenodd" clip-rule="evenodd" d="M44.6097 84.9669C43.5067 90.0699 46.4327 95.3679 51.6027 97.2109C56.5967 98.9909 62.0097 96.9489 64.5107 92.6149C64.4177 93.0469 64.2957 93.4769 64.1427 93.9029C62.1927 99.3739 56.0587 102.192 50.4517 100.193C44.8447 98.1949 41.8757 92.1309 43.8257 86.6609C44.0397 86.0639 44.3027 85.4979 44.6097 84.9669Z" fill="#EFF2FF"/>
<path fill-rule="evenodd" clip-rule="evenodd" d="M55.9717 65.762C59.0467 61.542 58.5147 55.512 54.5337 51.734C50.6877 48.085 44.9107 47.761 40.8687 50.711C41.1287 50.354 41.4147 50.01 41.7267 49.682C45.7236 45.469 52.4747 45.376 56.7917 49.472C61.1097 53.569 61.3687 60.316 57.3717 64.529C56.9357 64.989 56.4667 65.4 55.9717 65.762Z" fill="#EFF2FF"/>
<path fill-rule="evenodd" clip-rule="evenodd" d="M86.2107 82.067C89.6737 77.131 88.9287 70.171 84.2447 65.881C79.7187 61.734 73.0327 61.47 68.4247 64.957C68.7167 64.54 69.0397 64.137 69.3937 63.751C73.9237 58.806 81.7267 58.57 86.8067 63.224C91.8867 67.878 92.3337 75.671 87.8037 80.616C87.3097 81.156 86.7757 81.64 86.2107 82.067Z" fill="#EFF2FF"/>
<path fill-rule="evenodd" clip-rule="evenodd" d="M26.5907 202.3C27.5667 196.317 33.8797 191.695 41.5127 191.695C49.4207 191.695 55.9137 196.658 56.5187 202.956C58.6697 203.334 60.3747 204.772 60.8637 206.606C61.5277 206.385 62.2417 206.266 62.9867 206.266C64.2807 206.266 65.4827 206.628 66.4847 207.249C68.3627 205.589 70.8517 204.579 73.5787 204.579C78.3357 204.579 82.3647 207.653 83.6997 211.881C84.7977 211.525 85.9787 211.331 87.2087 211.331C92.5987 211.331 97.0587 215.054 97.7517 219.873C101.633 220.209 104.642 222.573 104.642 225.436C104.642 225.968 104.538 226.483 104.344 226.971C104.374 226.97 104.403 226.97 104.433 226.97C106.032 226.97 107.329 228.095 107.329 229.481C107.329 229.869 107.227 230.237 107.045 230.565C119.552 231.609 134.919 232.539 136.558 232.739C139.351 233.079 -71.5403 232.296 -71.5403 232.296C-71.5403 232.296 -58.3993 231.457 -50.7513 230.532C-45.2863 229.871 -46.7233 228.997 -46.2903 227.909C-45.6973 226.417 -43.3443 225.301 -40.5343 225.301C-39.6013 225.301 -38.7193 225.424 -37.9353 225.643C-37.7223 222.413 -33.6973 219.833 -28.7713 219.833C-26.5213 219.833 -24.4593 220.371 -22.8623 221.263C-22.4943 218.602 -19.9033 216.486 -16.6403 216.179C-15.7463 211.685 -11.5823 208.282 -6.58628 208.282C-4.65728 208.282 -2.85329 208.789 -1.31229 209.671C0.16671 206.323 4.17471 203.919 8.88071 203.919C11.4097 203.919 13.7357 204.613 15.5777 205.774C17.0837 203.312 19.9207 201.651 23.1697 201.651C24.3837 201.649 25.5397 201.881 26.5907 202.3Z" fill="#EFF2FF"/>
<path d="M26.5907 202.3C27.5667 196.317 33.8797 191.695 41.5127 191.695C49.4207 191.695 55.9137 196.658 56.5187 202.956C58.6697 203.334 60.3747 204.772 60.8637 206.606C61.5277 206.385 62.2417 206.266 62.9867 206.266C64.2807 206.266 65.4827 206.628 66.4847 207.249C68.3627 205.589 70.8517 204.579 73.5787 204.579C78.3357 204.579 82.3647 207.653 83.6997 211.881C84.7977 211.525 85.9787 211.331 87.2087 211.331C92.5987 211.331 97.0587 215.054 97.7517 219.873C101.633 220.209 104.642 222.573 104.642 225.436C104.642 225.968 104.538 226.483 104.344 226.971C104.374 226.97 104.403 226.97 104.433 226.97C106.032 226.97 107.329 228.095 107.329 229.481C107.329 229.869 107.227 230.237 107.045 230.565C119.552 231.609 134.919 232.539 136.558 232.739C139.351 233.079 -71.5403 232.296 -71.5403 232.296C-71.5403 232.296 -58.3993 231.457 -50.7513 230.532C-45.2863 229.871 -46.7233 228.997 -46.2903 227.909C-45.6973 226.417 -43.3443 225.301 -40.5343 225.301C-39.6013 225.301 -38.7193 225.424 -37.9353 225.643C-37.7223 222.413 -33.6973 219.833 -28.7713 219.833C-26.5213 219.833 -24.4593 220.371 -22.8623 221.263C-22.4943 218.602 -19.9033 216.486 -16.6403 216.179C-15.7463 211.685 -11.5823 208.282 -6.58628 208.282C-4.65728 208.282 -2.85329 208.789 -1.31229 209.671C0.16671 206.323 4.17471 203.919 8.88071 203.919C11.4097 203.919 13.7357 204.613 15.5777 205.774C17.0837 203.312 19.9207 201.651 23.1697 201.651C24.3837 201.649 25.5397 201.881 26.5907 202.3Z" fill="#EFF2FF"/>
<mask id="mask1_22_9625" style="mask-type:luminance" maskUnits="userSpaceOnUse" x="-72" y="191" width="209" height="42">
<path d="M26.5907 202.3C27.5667 196.317 33.8797 191.695 41.5127 191.695C49.4207 191.695 55.9137 196.658 56.5187 202.956C58.6697 203.334 60.3747 204.772 60.8637 206.606C61.5277 206.385 62.2417 206.266 62.9867 206.266C64.2807 206.266 65.4827 206.628 66.4847 207.249C68.3627 205.589 70.8517 204.579 73.5787 204.579C78.3357 204.579 82.3647 207.653 83.6997 211.881C84.7977 211.525 85.9787 211.331 87.2087 211.331C92.5987 211.331 97.0587 215.054 97.7517 219.873C101.633 220.209 104.642 222.573 104.642 225.436C104.642 225.968 104.538 226.483 104.344 226.971C104.374 226.97 104.403 226.97 104.433 226.97C106.032 226.97 107.329 228.095 107.329 229.481C107.329 229.869 107.227 230.237 107.045 230.565C119.552 231.609 134.919 232.539 136.558 232.739C139.351 233.079 -71.5403 232.296 -71.5403 232.296C-71.5403 232.296 -58.3993 231.457 -50.7513 230.532C-45.2863 229.871 -46.7233 228.997 -46.2903 227.909C-45.6973 226.417 -43.3443 225.301 -40.5343 225.301C-39.6013 225.301 -38.7193 225.424 -37.9353 225.643C-37.7223 222.413 -33.6973 219.833 -28.7713 219.833C-26.5213 219.833 -24.4593 220.371 -22.8623 221.263C-22.4943 218.602 -19.9033 216.486 -16.6403 216.179C-15.7463 211.685 -11.5823 208.282 -6.58628 208.282C-4.65728 208.282 -2.85329 208.789 -1.31229 209.671C0.16671 206.323 4.17471 203.919 8.88071 203.919C11.4097 203.919 13.7357 204.613 15.5777 205.774C17.0837 203.312 19.9207 201.651 23.1697 201.651C24.3837 201.649 25.5397 201.881 26.5907 202.3Z" fill="white"/>
</mask>
<g mask="url(#mask1_22_9625)">
<path fill-rule="evenodd" clip-rule="evenodd" d="M-1.01332 228.022C-1.29632 229.013 -2.63732 229.741 -3.51532 230.034C-6.11732 230.901 -9.29332 230.574 -11.6713 229.194C-12.4703 228.73 -13.8003 227.04 -14.8153 227.197C-15.8333 227.353 -16.6033 228.622 -17.3393 229.227C-18.6543 230.307 -20.1783 230.98 -21.8823 231.127C-24.0583 231.315 -26.1103 230.637 -27.9333 229.479C-28.6693 229.012 -29.8103 227.624 -30.7283 227.604C-31.2913 227.591 -31.8503 228.398 -32.1813 228.754C-32.8613 229.486 -33.7453 230.198 -34.7383 230.442C-36.6113 230.901 -38.8283 230.457 -40.6303 229.89C-41.2913 229.682 -41.9453 229.286 -42.6313 229.183C-43.5393 229.048 -44.2553 230.243 -45.1373 230.441C-47.9013 231.063 -50.8653 229.325 -52.0753 226.886C-53.8943 223.218 -50.0073 220.588 -47.4203 218.629C-43.6043 215.738 -39.3303 214.384 -34.6443 213.653C-31.2263 213.12 -27.7013 213.322 -24.6233 211.533C-14.4153 206.994 -7.54632 198.38 2.53468 193.512C16.6327 186.705 32.0787 186.434 47.3647 187.526C57.3497 188.239 67.2247 189.452 76.2657 194.053C81.2857 196.607 86.1517 200.455 89.7697 204.79C93.0567 208.728 95.3927 214.688 99.6707 217.698C100.398 218.182 100.862 219.42 101.062 220.198C101.78 222.983 100.91 225.616 98.4997 227.236C96.8657 228.335 94.7467 228.75 92.8307 228.288C91.7337 228.024 90.4947 227.104 89.3307 227.333C88.2877 227.538 87.4637 228.51 86.5837 229.041C84.7487 230.148 82.6447 231.032 80.4787 231.097C77.2537 231.194 73.8327 230.07 71.0497 228.5C70.0977 227.963 69.1867 227.392 68.3867 226.643C68.0387 226.317 67.5367 225.675 67.0047 225.675C65.9667 225.675 64.5677 227.686 63.7427 228.219C61.9777 229.359 59.7507 229.885 57.6817 230.05C54.2227 230.326 50.6637 229.646 47.5317 228.157C46.4907 227.662 45.4747 227.111 44.5087 226.484C44.0367 226.178 43.3927 225.53 42.7907 225.52C41.6127 225.5 40.3307 227.641 39.6127 228.359C38.2147 229.758 36.4407 230.53 34.4857 230.749C31.9207 231.037 29.4827 230.42 26.9537 230.19C23.7697 229.901 20.7487 230.332 17.7537 228.861C16.4037 228.198 15.2647 227.132 14.2587 226.026C13.8417 225.568 13.2187 224.446 12.5767 224.27C12.1477 224.152 12.0157 225.318 11.9607 225.533C11.6287 226.822 11.2327 228.334 10.0107 229.068C6.85669 230.96 2.10368 229.689 -0.857315 227.981" fill="#EFF2FF"/>
</g>
<path fill-rule="evenodd" clip-rule="evenodd" d="M62.2906 213.013C61.5926 218.418 65.2176 223.718 70.9136 225.244C76.4166 226.719 82.0086 224.176 84.2716 219.467C84.2126 219.924 84.1226 220.382 84.0006 220.838C82.4326 226.69 76.1436 230.097 69.9666 228.442C63.7886 226.787 60.0456 220.692 61.6136 214.84C61.7856 214.201 62.0126 213.591 62.2906 213.013Z" fill="#EFF2FF"/>
<path fill-rule="evenodd" clip-rule="evenodd" d="M9.40467 214.333C8.70667 219.738 12.3327 225.038 18.0287 226.564C23.5317 228.039 29.1227 225.496 31.3867 220.787C31.3277 221.244 31.2377 221.702 31.1157 222.158C29.5477 228.01 23.2597 231.417 17.0817 229.762C10.9037 228.107 7.16167 222.012 8.72867 216.16C8.89967 215.52 9.12767 214.91 9.40467 214.333Z" fill="#EFF2FF"/>
<path fill-rule="evenodd" clip-rule="evenodd" d="M30.4877 227.495C34.3847 229.605 39.4677 228.404 42.2917 224.528C45.0197 220.783 44.7247 215.796 41.8137 212.701C42.1427 212.879 42.4647 213.081 42.7747 213.308C46.7567 216.209 47.5037 221.978 44.4407 226.182C41.3777 230.386 35.6577 231.444 31.6757 228.543C31.2417 228.225 30.8447 227.874 30.4877 227.495Z" fill="#EFF2FF"/>
<path fill-rule="evenodd" clip-rule="evenodd" d="M-16.2923 218.522C-16.2553 222.954 -12.7463 226.822 -7.98828 227.42C-3.39128 227.998 0.831718 225.329 2.13372 221.284C2.13672 221.659 2.11472 222.038 2.06672 222.419C1.45272 227.308 -3.23628 230.75 -8.39728 230.102C-13.5583 229.453 -17.2493 224.958 -16.6353 220.069C-16.5683 219.534 -16.4523 219.017 -16.2923 218.522Z" fill="#EFF2FF"/>
<path fill-rule="evenodd" clip-rule="evenodd" d="M562.207 175.85C564.586 161.267 579.975 150 598.581 150C617.858 150 633.684 162.099 635.16 177.45C640.403 178.372 644.558 181.876 645.751 186.347C647.371 185.81 649.11 185.517 650.925 185.517C654.079 185.517 657.009 186.4 659.451 187.913C664.03 183.868 670.095 181.404 676.742 181.404C688.339 181.404 698.159 188.899 701.414 199.203C704.09 198.335 706.97 197.863 709.966 197.863C723.105 197.863 733.976 206.937 735.666 218.684C745.125 219.502 752.461 225.265 752.461 232.244C752.461 233.541 752.207 234.797 751.735 235.986C751.807 235.984 751.879 235.983 751.951 235.983C755.85 235.983 759.012 238.726 759.012 242.103C759.012 243.049 758.764 243.945 758.321 244.746C788.808 247.291 826.267 249.558 830.262 250.044C837.069 250.873 323 248.965 323 248.965C323 248.965 355.032 246.92 373.676 244.665C386.998 243.054 383.496 240.925 384.55 238.27C385.995 234.632 391.732 231.912 398.58 231.912C400.853 231.912 403.004 232.212 404.916 232.745C405.435 224.871 415.246 218.583 427.255 218.583C432.74 218.583 437.766 219.895 441.658 222.07C442.556 215.582 448.871 210.425 456.824 209.677C459.003 198.723 469.154 190.426 481.333 190.426C486.034 190.426 490.433 191.662 494.189 193.811C497.794 185.649 507.563 179.79 519.036 179.79C525.2 179.79 530.872 181.481 535.36 184.312C539.031 178.31 545.947 174.262 553.867 174.262C556.827 174.265 559.645 174.83 562.207 175.85Z" fill="#EFF2FF"/>
<path d="M562.207 175.85C564.586 161.267 579.975 150 598.581 150C617.858 150 633.684 162.099 635.16 177.45C640.403 178.372 644.558 181.876 645.751 186.347C647.371 185.81 649.11 185.517 650.925 185.517C654.079 185.517 657.009 186.4 659.451 187.913C664.03 183.868 670.095 181.404 676.742 181.404C688.339 181.404 698.159 188.899 701.414 199.203C704.09 198.335 706.97 197.863 709.966 197.863C723.105 197.863 733.976 206.937 735.666 218.684C745.125 219.502 752.461 225.265 752.461 232.244C752.461 233.541 752.207 234.797 751.735 235.986C751.807 235.984 751.879 235.983 751.951 235.983C755.85 235.983 759.012 238.726 759.012 242.103C759.012 243.049 758.764 243.945 758.321 244.746C788.808 247.291 826.267 249.558 830.262 250.044C837.069 250.873 323 248.965 323 248.965C323 248.965 355.032 246.92 373.676 244.665C386.998 243.054 383.496 240.925 384.55 238.27C385.995 234.632 391.732 231.912 398.58 231.912C400.853 231.912 403.004 232.212 404.916 232.745C405.435 224.871 415.246 218.583 427.255 218.583C432.74 218.583 437.766 219.895 441.658 222.07C442.556 215.582 448.871 210.425 456.824 209.677C459.003 198.723 469.154 190.426 481.333 190.426C486.034 190.426 490.433 191.662 494.189 193.811C497.794 185.649 507.563 179.79 519.036 179.79C525.2 179.79 530.872 181.481 535.36 184.312C539.031 178.31 545.947 174.262 553.867 174.262C556.827 174.265 559.645 174.83 562.207 175.85Z" fill="#EFF2FF"/>
<mask id="mask2_22_9625" style="mask-type:luminance" maskUnits="userSpaceOnUse" x="323" y="150" width="508" height="101">
<path d="M562.207 175.85C564.586 161.267 579.975 150 598.581 150C617.858 150 633.684 162.099 635.16 177.45C640.403 178.372 644.558 181.876 645.751 186.347C647.371 185.81 649.11 185.517 650.925 185.517C654.079 185.517 657.009 186.4 659.451 187.913C664.03 183.868 670.095 181.404 676.742 181.404C688.339 181.404 698.159 188.899 701.414 199.203C704.09 198.335 706.97 197.863 709.966 197.863C723.105 197.863 733.976 206.937 735.666 218.684C745.125 219.502 752.461 225.265 752.461 232.244C752.461 233.541 752.207 234.797 751.735 235.986C751.807 235.984 751.879 235.983 751.951 235.983C755.85 235.983 759.012 238.726 759.012 242.103C759.012 243.049 758.764 243.945 758.321 244.746C788.808 247.291 826.267 249.558 830.262 250.044C837.069 250.873 323 248.965 323 248.965C323 248.965 355.032 246.92 373.676 244.665C386.998 243.054 383.496 240.925 384.55 238.27C385.995 234.632 391.732 231.912 398.58 231.912C400.853 231.912 403.004 232.212 404.916 232.745C405.435 224.871 415.246 218.583 427.255 218.583C432.74 218.583 437.766 219.895 441.658 222.07C442.556 215.582 448.871 210.425 456.824 209.677C459.003 198.723 469.154 190.426 481.333 190.426C486.034 190.426 490.433 191.662 494.189 193.811C497.794 185.649 507.563 179.79 519.036 179.79C525.2 179.79 530.872 181.481 535.36 184.312C539.031 178.31 545.947 174.262 553.867 174.262C556.827 174.265 559.645 174.83 562.207 175.85Z" fill="white"/>
</mask>
<g mask="url(#mask2_22_9625)">
<path fill-rule="evenodd" clip-rule="evenodd" d="M494.921 238.55C494.231 240.967 490.962 242.741 488.821 243.455C482.478 245.569 474.736 244.772 468.939 241.407C466.991 240.276 463.749 236.157 461.274 236.538C458.793 236.92 456.916 240.012 455.121 241.487C451.915 244.121 448.2 245.759 444.046 246.119C438.743 246.579 433.741 244.924 429.297 242.102C427.503 240.963 424.721 237.581 422.485 237.532C421.113 237.501 419.751 239.467 418.943 240.336C417.285 242.119 415.129 243.856 412.711 244.45C408.146 245.57 402.742 244.487 398.349 243.105C396.738 242.598 395.145 241.632 393.471 241.382C391.258 241.052 389.511 243.966 387.362 244.45C380.625 245.966 373.4 241.729 370.451 235.783C366.017 226.842 375.491 220.432 381.799 215.654C391.102 208.608 401.519 205.306 412.941 203.524C421.274 202.224 429.866 202.717 437.368 198.356C462.254 187.296 478.999 166.297 503.571 154.431C537.936 137.837 575.587 137.178 612.849 139.84C637.188 141.579 661.26 144.536 683.298 155.75C695.535 161.975 707.397 171.355 716.216 181.921C724.229 191.52 729.924 206.048 740.352 213.386C742.124 214.566 743.255 217.583 743.744 219.48C745.494 226.269 743.373 232.686 737.5 236.637C733.516 239.317 728.353 240.326 723.68 239.201C721.006 238.557 717.986 236.316 715.149 236.873C712.606 237.372 710.599 239.741 708.454 241.036C703.982 243.735 698.853 245.888 693.572 246.047C685.711 246.284 677.372 243.543 670.589 239.716C668.267 238.407 666.047 237.016 664.097 235.188C663.248 234.393 662.026 232.827 660.73 232.827C658.2 232.827 654.79 237.73 652.778 239.029C648.477 241.808 643.046 243.09 638.003 243.492C629.571 244.165 620.896 242.507 613.261 238.878C610.723 237.672 608.247 236.329 605.891 234.801C604.741 234.055 603.172 232.476 601.704 232.451C598.833 232.401 595.708 237.622 593.957 239.372C590.549 242.782 586.224 244.663 581.458 245.198C575.206 245.901 569.263 244.396 563.099 243.835C555.337 243.129 547.974 244.181 540.674 240.595C537.383 238.978 534.607 236.38 532.155 233.685C531.14 232.569 529.621 229.834 528.056 229.404C527.009 229.116 526.689 231.959 526.554 232.483C525.744 235.626 524.78 239.311 521.801 241.099C514.113 245.712 502.526 242.612 495.309 238.449" fill="#EFF2FF"/>
</g>
<path fill-rule="evenodd" clip-rule="evenodd" d="M649.231 201.966C647.528 215.14 656.366 228.06 670.25 231.78C683.664 235.375 697.295 229.177 702.813 217.697C702.669 218.81 702.45 219.927 702.151 221.039C698.33 235.304 683 243.609 667.942 239.574C652.881 235.539 643.758 220.682 647.582 206.417C647.998 204.86 648.553 203.374 649.231 201.966Z" fill="#EFF2FF"/>
<path fill-rule="evenodd" clip-rule="evenodd" d="M520.316 205.182C518.615 218.356 527.453 231.276 541.337 234.996C554.752 238.59 568.381 232.393 573.899 220.913C573.755 222.027 573.536 223.143 573.237 224.255C569.416 238.52 554.086 246.825 539.027 242.79C523.968 238.755 514.845 223.898 518.667 209.633C519.085 208.076 519.639 206.59 520.316 205.182Z" fill="#EFF2FF"/>
<path fill-rule="evenodd" clip-rule="evenodd" d="M571.708 237.267C581.208 242.411 593.597 239.482 600.482 230.034C607.132 220.905 606.414 208.749 599.316 201.204C600.119 201.639 600.904 202.131 601.659 202.683C611.367 209.755 613.187 223.817 605.72 234.066C598.254 244.314 584.311 246.893 574.603 239.82C573.544 239.047 572.578 238.192 571.708 237.267Z" fill="#EFF2FF"/>
<path fill-rule="evenodd" clip-rule="evenodd" d="M457.675 215.393C457.765 226.196 466.319 235.625 477.918 237.083C489.125 238.491 499.418 231.986 502.591 222.125C502.598 223.038 502.546 223.962 502.429 224.891C500.932 236.808 489.502 245.199 476.921 243.619C464.34 242.038 455.342 231.079 456.84 219.163C457.004 217.861 457.286 216.602 457.675 215.393Z" fill="#EFF2FF"/>
<path fill-rule="evenodd" clip-rule="evenodd" d="M587.632 -3.419C590.647 -7.388 595.76 -10 601.553 -10C609.737 -10 616.559 -4.789 618.036 2.096C625.642 3.424 631.371 9.181 631.371 16.072C631.371 16.849 631.298 17.612 631.158 18.355C634.686 21.299 636.908 25.578 636.908 30.337C636.908 37.252 632.217 43.154 625.643 45.419C625.669 45.746 625.681 46.076 625.681 46.409C625.681 54.642 618.032 61.328 608.609 61.328C604.399 61.328 600.543 59.993 597.565 57.783C595.668 58.387 593.641 58.714 591.537 58.714C588.183 58.714 585.028 57.884 582.282 56.425C578.53 59.463 573.457 61.329 567.874 61.329C561.16 61.329 555.183 58.631 551.359 54.444C548.163 57.043 543.2 58.714 537.631 58.714C533.371 58.714 529.465 57.736 526.434 56.113C523.973 57.723 520.628 58.714 516.944 58.714C509.603 58.714 503.604 54.776 503.271 49.841C485.18 49.582 467.921 49.409 462 49.103C461.938 49.1 494.149 44.375 497.191 41.829C497.269 41.764 497.344 41.694 497.416 41.62C496.918 40.62 496.643 39.524 496.643 38.374C496.643 33.684 501.225 29.877 506.87 29.877C509.553 29.877 511.997 30.737 513.821 32.144C515.861 29.685 519.614 28.035 523.903 28.035C526.41 28.035 528.732 28.598 530.637 29.557C530.836 23.205 536.939 18.102 544.425 18.102C545.336 18.102 546.226 18.177 547.088 18.321C547.014 17.839 546.977 17.345 546.977 16.845C546.977 10.67 552.727 5.656 559.81 5.656C561.319 5.656 562.766 5.884 564.111 6.301C564.501 4.076 565.511 2.027 566.983 0.292C568.008 -1.148 569.397 -2.432 571.275 -3.182C573.707 -4.517 576.589 -5.29 579.677 -5.29C582.577 -5.29 585.296 -4.608 587.632 -3.419Z" fill="#EFF2FF"/>
<path d="M587.632 -3.419C590.647 -7.388 595.76 -10 601.553 -10C609.737 -10 616.559 -4.789 618.036 2.096C625.642 3.424 631.371 9.181 631.371 16.072C631.371 16.849 631.298 17.612 631.158 18.355C634.686 21.299 636.908 25.578 636.908 30.337C636.908 37.252 632.217 43.154 625.643 45.419C625.669 45.746 625.681 46.076 625.681 46.409C625.681 54.642 618.032 61.328 608.609 61.328C604.399 61.328 600.543 59.993 597.565 57.783C595.668 58.387 593.641 58.714 591.537 58.714C588.183 58.714 585.028 57.884 582.282 56.425C578.53 59.463 573.457 61.329 567.874 61.329C561.16 61.329 555.183 58.631 551.359 54.444C548.163 57.043 543.2 58.714 537.631 58.714C533.371 58.714 529.465 57.736 526.434 56.113C523.973 57.723 520.628 58.714 516.944 58.714C509.603 58.714 503.604 54.776 503.271 49.841C485.18 49.582 467.921 49.409 462 49.103C461.938 49.1 494.149 44.375 497.191 41.829C497.269 41.764 497.344 41.694 497.416 41.62C496.918 40.62 496.643 39.524 496.643 38.374C496.643 33.684 501.225 29.877 506.87 29.877C509.553 29.877 511.997 30.737 513.821 32.144C515.861 29.685 519.614 28.035 523.903 28.035C526.41 28.035 528.732 28.598 530.637 29.557C530.836 23.205 536.939 18.102 544.425 18.102C545.336 18.102 546.226 18.177 547.088 18.321C547.014 17.839 546.977 17.345 546.977 16.845C546.977 10.67 552.727 5.656 559.81 5.656C561.319 5.656 562.766 5.884 564.111 6.301C564.501 4.076 565.511 2.027 566.983 0.292C568.008 -1.148 569.397 -2.432 571.275 -3.182C573.707 -4.517 576.589 -5.29 579.677 -5.29C582.577 -5.29 585.296 -4.608 587.632 -3.419Z" fill="#EFF2FF"/>
<mask id="mask3_22_9625" style="mask-type:luminance" maskUnits="userSpaceOnUse" x="462" y="-10" width="175" height="72">
<path d="M587.632 -3.419C590.647 -7.388 595.76 -10 601.553 -10C609.737 -10 616.559 -4.789 618.036 2.096C625.642 3.424 631.371 9.181 631.371 16.072C631.371 16.849 631.298 17.612 631.158 18.355C634.686 21.299 636.908 25.578 636.908 30.337C636.908 37.252 632.217 43.154 625.643 45.419C625.669 45.746 625.681 46.076 625.681 46.409C625.681 54.642 618.032 61.328 608.609 61.328C604.399 61.328 600.543 59.993 597.565 57.783C595.668 58.387 593.641 58.714 591.537 58.714C588.183 58.714 585.028 57.884 582.282 56.425C578.53 59.463 573.457 61.329 567.874 61.329C561.16 61.329 555.183 58.631 551.359 54.444C548.163 57.043 543.2 58.714 537.631 58.714C533.371 58.714 529.465 57.736 526.434 56.113C523.973 57.723 520.628 58.714 516.944 58.714C509.603 58.714 503.604 54.776 503.271 49.841C485.18 49.582 467.921 49.409 462 49.103C461.938 49.1 494.149 44.375 497.191 41.829C497.269 41.764 497.344 41.694 497.416 41.62C496.918 40.62 496.643 39.524 496.643 38.374C496.643 33.684 501.225 29.877 506.87 29.877C509.553 29.877 511.997 30.737 513.821 32.144C515.861 29.685 519.614 28.035 523.903 28.035C526.41 28.035 528.732 28.598 530.637 29.557C530.836 23.205 536.939 18.102 544.425 18.102C545.336 18.102 546.226 18.177 547.088 18.321C547.014 17.839 546.977 17.345 546.977 16.845C546.977 10.67 552.727 5.656 559.81 5.656C561.319 5.656 562.766 5.884 564.111 6.301C564.501 4.076 565.511 2.027 566.983 0.292C568.008 -1.148 569.397 -2.432 571.275 -3.182C573.707 -4.517 576.589 -5.29 579.677 -5.29C582.577 -5.29 585.296 -4.608 587.632 -3.419Z" fill="white"/>
</mask>
<g mask="url(#mask3_22_9625)">
<path fill-rule="evenodd" clip-rule="evenodd" d="M586.056 -10.243C589.072 -14.213 594.184 -16.824 599.978 -16.824C608.161 -16.824 614.984 -11.613 616.461 -4.72897C624.067 -3.39997 629.796 2.35603 629.796 9.24702C629.796 10.024 629.723 10.787 629.583 11.531C633.111 14.475 635.333 18.754 635.333 23.513C635.333 30.428 630.642 36.329 624.068 38.594C624.093 38.921 624.106 39.252 624.106 39.584C624.106 47.818 616.456 54.502 607.034 54.502C602.824 54.502 598.968 53.168 595.99 50.957C594.093 51.561 592.067 51.888 589.962 51.888C586.608 51.888 583.454 51.058 580.706 49.6C576.956 52.638 571.881 54.503 566.299 54.503C559.585 54.503 553.608 51.806 549.784 47.619C546.587 50.217 541.625 51.888 536.056 51.888C531.796 51.888 527.89 50.911 524.858 49.287C522.398 50.898 519.053 51.888 515.369 51.888C508.028 51.888 505.756 49.671 505.423 44.736C488.575 46.961 465.009 50.038 459.088 49.731C459.026 49.728 492.575 37.549 495.617 35.002C495.695 34.937 495.77 34.868 495.842 34.794C495.344 33.794 495.068 32.697 495.068 31.548C495.068 26.858 499.651 23.05 505.296 23.05C507.979 23.05 510.422 23.91 512.247 25.317C514.287 22.859 518.04 21.209 522.329 21.209C524.835 21.209 527.158 21.771 529.063 22.73C529.261 16.379 535.364 11.275 542.851 11.275C543.761 11.275 544.652 11.351 545.514 11.494C545.44 11.012 545.402 10.52 545.402 10.02C545.402 3.84402 551.152 -1.16897 558.236 -1.16897C559.744 -1.16897 561.192 -0.941976 562.536 -0.523975C562.926 -2.74898 563.937 -4.79797 565.407 -6.53397C566.433 -7.97297 567.821 -9.25797 569.7 -10.007C572.131 -11.342 575.013 -12.115 578.102 -12.115C581.002 -12.114 583.721 -11.433 586.056 -10.243Z" fill="#EFF2FF"/>
</g>
<path fill-rule="evenodd" clip-rule="evenodd" d="M610.553 44.054C612.781 40.713 611.808 35.655 608.121 32.277C604.558 29.013 599.655 28.411 596.502 30.639C596.69 30.356 596.902 30.086 597.136 29.83C600.143 26.548 605.831 26.857 609.83 30.522C613.829 34.185 614.635 39.824 611.629 43.107C611.301 43.465 610.941 43.781 610.553 44.054Z" fill="#EFF2FF"/>
<path fill-rule="evenodd" clip-rule="evenodd" d="M529.959 43.871C533.42 48.808 540.218 50.477 545.848 47.535C551.288 44.691 553.813 38.495 552.103 32.974C552.396 33.392 552.664 33.832 552.907 34.296C556.014 40.239 553.579 47.656 547.474 50.848C541.368 54.04 533.888 51.806 530.781 45.863C530.442 45.214 530.169 44.548 529.959 43.871Z" fill="#EFF2FF"/>
<path fill-rule="evenodd" clip-rule="evenodd" d="M510.297 35.806C506.561 37.064 504.213 40.521 504.959 43.914C505.679 47.193 509.046 49.315 512.807 49.072C512.491 49.178 512.165 49.269 511.831 49.342C507.537 50.285 503.394 48.063 502.586 44.383C501.777 40.702 504.607 36.948 508.901 36.005C509.368 35.901 509.835 35.836 510.297 35.806Z" fill="#EFF2FF"/>
<path fill-rule="evenodd" clip-rule="evenodd" d="M578.152 41.141C577.53 45.332 580.57 49.642 585.386 51.1C590.039 52.508 594.79 50.781 596.735 47.207C596.682 47.561 596.604 47.915 596.497 48.266C595.135 52.766 589.789 55.136 584.566 53.554C579.343 51.973 576.208 47.036 577.57 42.537C577.718 42.046 577.914 41.58 578.152 41.141Z" fill="#EFF2FF"/>
<path fill-rule="evenodd" clip-rule="evenodd" d="M596.096 15.547C597.801 10.613 595.529 5.00297 590.618 2.55397C585.872 0.188972 580.253 1.56897 577.251 5.57297C577.396 5.15597 577.569 4.74397 577.77 4.33897C580.361 -0.860028 586.789 -2.92403 592.116 -0.269028C597.443 2.38497 599.665 8.75997 597.075 13.959C596.792 14.527 596.463 15.057 596.096 15.547Z" fill="#EFF2FF"/>
</g>
<defs>
<clipPath id="clip0_22_9625">
<rect width="750" height="500" fill="white"/>
</clipPath>
</defs>
</svg>
