<svg width="750" height="500" viewBox="0 0 750 500" fill="none" xmlns="http://www.w3.org/2000/svg">
<g clip-path="url(#clip0_22_9677)">
<path fill-rule="evenodd" clip-rule="evenodd" d="M607.965 192.038C623.277 175.215 628.736 168.979 632.233 169.679C642.038 171.64 667.024 201.381 670.654 196.805C674.285 192.23 705.811 165.538 718.189 152.725C727.451 143.136 743.985 128.002 756.59 117.509C770.819 105.664 780.755 99.1117 783.008 101.481C792.586 111.55 786.753 503.941 786.753 503.941C786.753 503.941 225.893 461.089 245.503 443.966C265.113 426.843 491.135 251.47 495.937 247.015C498.693 244.459 505.486 251.93 513.678 259.022C514.464 259.703 518.828 257.357 519.61 258.027C524.878 262.542 527.738 269.369 531.134 270.339C533.887 271.126 543.251 262.148 555.266 249.26C556.001 248.015 556.777 246.693 557.576 245.318C561.99 237.724 581.589 214.243 582.649 212.301C583.708 210.359 587.136 204.576 587.136 204.576C588.479 202.337 591.947 203.607 592.975 203.777C595.008 204.114 597.085 199.156 598.456 196.89C602.833 189.653 604.747 191.87 607.965 192.038Z" fill="#5799C9"/>
<mask id="mask0_22_9677" style="mask-type:luminance" maskUnits="userSpaceOnUse" x="245" y="101" width="544" height="403">
<path d="M607.965 192.038C623.277 175.215 628.736 168.979 632.233 169.679C642.038 171.64 667.024 201.381 670.654 196.805C674.285 192.23 705.811 165.538 718.189 152.725C727.451 143.136 743.985 128.002 756.59 117.509C770.819 105.664 780.755 99.1117 783.008 101.481C792.586 111.55 786.753 503.941 786.753 503.941C786.753 503.941 225.893 461.089 245.503 443.966C265.113 426.843 491.135 251.47 495.937 247.015C498.693 244.459 505.486 251.93 513.678 259.022C514.464 259.703 518.828 257.357 519.61 258.027C524.878 262.542 527.738 269.369 531.134 270.339C533.887 271.126 543.251 262.148 555.266 249.26C556.001 248.015 556.777 246.693 557.576 245.318C561.99 237.724 581.589 214.243 582.649 212.301C583.708 210.359 587.136 204.576 587.136 204.576C588.479 202.337 591.947 203.607 592.975 203.777C595.008 204.114 597.085 199.156 598.456 196.89C602.833 189.653 604.747 191.87 607.965 192.038Z" fill="white"/>
</mask>
<g mask="url(#mask0_22_9677)">
<path fill-rule="evenodd" clip-rule="evenodd" d="M709.049 136.462L783.008 101.481L708.167 195.345L723.052 197.746L657.695 284.543L647.69 309.98V320.634L599.466 362.414L626.964 309.98L639.256 273.102L625.324 258.76L657.285 221.062L670.276 197.123L709.049 136.462Z" fill="#4E89B5"/>
</g>
<mask id="mask1_22_9677" style="mask-type:luminance" maskUnits="userSpaceOnUse" x="245" y="101" width="544" height="403">
<path d="M607.965 192.038C623.277 175.215 628.736 168.979 632.233 169.679C642.038 171.64 667.024 201.381 670.654 196.805C674.285 192.23 705.811 165.538 718.189 152.725C727.451 143.136 743.985 128.002 756.59 117.509C770.819 105.664 780.755 99.1117 783.008 101.481C792.586 111.55 786.753 503.941 786.753 503.941C786.753 503.941 225.893 461.089 245.503 443.966C265.113 426.843 491.135 251.47 495.937 247.015C498.693 244.459 505.486 251.93 513.678 259.022C514.464 259.703 518.828 257.357 519.61 258.027C524.878 262.542 527.738 269.369 531.134 270.339C533.887 271.126 543.251 262.148 555.266 249.26C556.001 248.015 556.777 246.693 557.576 245.318C561.99 237.724 581.589 214.243 582.649 212.301C583.708 210.359 587.136 204.576 587.136 204.576C588.479 202.337 591.947 203.607 592.975 203.777C595.008 204.114 597.085 199.156 598.456 196.89C602.833 189.653 604.747 191.87 607.965 192.038Z" fill="white"/>
</mask>
<g mask="url(#mask1_22_9677)">
<path fill-rule="evenodd" clip-rule="evenodd" d="M551.59 223.051L627.79 166.479L632.217 169.676L588.745 232.852H596.938L581.574 250.027L571.672 265.393L555.965 288.613L540.94 305.09L490.062 352.126L520.794 291.345L521.818 276.32L496.858 246.544L539.188 250.75L551.59 223.051Z" fill="#4E89B5"/>
</g>
<mask id="mask2_22_9677" style="mask-type:luminance" maskUnits="userSpaceOnUse" x="245" y="101" width="544" height="403">
<path d="M607.965 192.038C623.277 175.215 628.736 168.979 632.233 169.679C642.038 171.64 667.024 201.381 670.654 196.805C674.285 192.23 705.811 165.538 718.189 152.725C727.451 143.136 743.985 128.002 756.59 117.509C770.819 105.664 780.755 99.1117 783.008 101.481C792.586 111.55 786.753 503.941 786.753 503.941C786.753 503.941 225.893 461.089 245.503 443.966C265.113 426.843 491.135 251.47 495.937 247.015C498.693 244.459 505.486 251.93 513.678 259.022C514.464 259.703 518.828 257.357 519.61 258.027C524.878 262.542 527.738 269.369 531.134 270.339C533.887 271.126 543.251 262.148 555.266 249.26C556.001 248.015 556.777 246.693 557.576 245.318C561.99 237.724 581.589 214.243 582.649 212.301C583.708 210.359 587.136 204.576 587.136 204.576C588.479 202.337 591.947 203.607 592.975 203.777C595.008 204.114 597.085 199.156 598.456 196.89C602.833 189.653 604.747 191.87 607.965 192.038Z" fill="white"/>
</mask>
<g mask="url(#mask2_22_9677)">
<path fill-rule="evenodd" clip-rule="evenodd" d="M626.701 155.232L646.529 179.275L614.41 228.022L628.906 231.947L620.714 244.093L595.996 318.577L508.148 335.405C508.148 335.405 520.543 294.943 528.334 291.398C536.125 287.853 566.062 251.616 570.789 245.708C575.515 239.799 580.932 205.746 584.328 198.746C587.725 191.745 626.701 155.232 626.701 155.232Z" fill="#57A4DA"/>
</g>
<mask id="mask3_22_9677" style="mask-type:luminance" maskUnits="userSpaceOnUse" x="245" y="101" width="544" height="403">
<path d="M607.965 192.038C623.277 175.215 628.736 168.979 632.233 169.679C642.038 171.64 667.024 201.381 670.654 196.805C674.285 192.23 705.811 165.538 718.189 152.725C727.451 143.136 743.985 128.002 756.59 117.509C770.819 105.664 780.755 99.1117 783.008 101.481C792.586 111.55 786.753 503.941 786.753 503.941C786.753 503.941 225.893 461.089 245.503 443.966C265.113 426.843 491.135 251.47 495.937 247.015C498.693 244.459 505.486 251.93 513.678 259.022C514.464 259.703 518.828 257.357 519.61 258.027C524.878 262.542 527.738 269.369 531.134 270.339C533.887 271.126 543.251 262.148 555.266 249.26C556.001 248.015 556.777 246.693 557.576 245.318C561.99 237.724 581.589 214.243 582.649 212.301C583.708 210.359 587.136 204.576 587.136 204.576C588.479 202.337 591.947 203.607 592.975 203.777C595.008 204.114 597.085 199.156 598.456 196.89C602.833 189.653 604.747 191.87 607.965 192.038Z" fill="white"/>
</mask>
<g mask="url(#mask3_22_9677)">
<path fill-rule="evenodd" clip-rule="evenodd" d="M731.165 104.918C737.73 104.918 783.008 101.094 783.008 101.094L745.526 179.592C745.526 179.592 747.577 193.952 750.449 200.517C753.321 207.082 742.654 221.117 738.961 231.947C735.268 242.778 718.446 296.199 716.394 302.517C714.343 308.836 646.529 377.356 646.529 377.356L610.495 341.383C610.495 341.383 632.283 318.683 637.207 305.964C642.13 293.245 643.361 250.73 657.311 245.318C671.262 239.906 691.237 219.391 691.237 219.391C691.237 219.391 689.467 208.313 691.237 200.517C693.007 192.722 731.181 139.983 731.181 139.983C731.181 139.983 730.674 137.28 730.081 133.376C728.54 123.216 726.423 104.918 731.165 104.918Z" fill="#57A4DA"/>
</g>
<mask id="mask4_22_9677" style="mask-type:luminance" maskUnits="userSpaceOnUse" x="245" y="101" width="544" height="403">
<path d="M607.965 192.038C623.277 175.215 628.736 168.979 632.233 169.679C642.038 171.64 667.024 201.381 670.654 196.805C674.285 192.23 705.811 165.538 718.189 152.725C727.451 143.136 743.985 128.002 756.59 117.509C770.819 105.664 780.755 99.1117 783.008 101.481C792.586 111.55 786.753 503.941 786.753 503.941C786.753 503.941 225.893 461.089 245.503 443.966C265.113 426.843 491.135 251.47 495.937 247.015C498.693 244.459 505.486 251.93 513.678 259.022C514.464 259.703 518.828 257.357 519.61 258.027C524.878 262.542 527.738 269.369 531.134 270.339C533.887 271.126 543.251 262.148 555.266 249.26C556.001 248.015 556.777 246.693 557.576 245.318C561.99 237.724 581.589 214.243 582.649 212.301C583.708 210.359 587.136 204.576 587.136 204.576C588.479 202.337 591.947 203.607 592.975 203.777C595.008 204.114 597.085 199.156 598.456 196.89C602.833 189.653 604.747 191.87 607.965 192.038Z" fill="white"/>
</mask>
<g mask="url(#mask4_22_9677)">
<path fill-rule="evenodd" clip-rule="evenodd" d="M410.787 293.89C421.991 286.188 496.857 246.544 496.857 246.544C496.857 246.544 483.263 276.734 478.361 279.535C473.46 282.336 464.006 290.389 464.006 290.389L472.41 302.517C472.41 302.517 463.656 312.447 458.054 317.348C452.452 322.25 385.228 381.771 385.228 381.771C385.228 381.771 341.813 367.916 342.864 362.414C343.914 356.912 399.583 301.593 410.787 293.89Z" fill="#57A4DA"/>
</g>
<path fill-rule="evenodd" clip-rule="evenodd" d="M297.444 430.948C313.53 425.446 503.143 293.894 515.763 305.79C524.38 313.912 539.558 322.15 550.269 321.008C565.781 310.361 591.789 280.267 597.875 285.056C609.167 293.941 781.416 512.51 766.246 500.427C757.467 493.435 266.323 515.613 266.323 515.613C266.323 515.613 281.358 436.451 297.444 430.948Z" fill="#4782AF"/>
<mask id="mask5_22_9677" style="mask-type:luminance" maskUnits="userSpaceOnUse" x="266" y="284" width="502" height="232">
<path d="M297.444 430.948C313.53 425.446 503.143 293.894 515.763 305.79C524.38 313.912 539.558 322.15 550.269 321.008C565.781 310.361 591.789 280.267 597.875 285.056C609.167 293.941 781.416 512.51 766.246 500.427C757.467 493.435 266.323 515.613 266.323 515.613C266.323 515.613 281.358 436.451 297.444 430.948Z" fill="white"/>
</mask>
<g mask="url(#mask5_22_9677)">
<path fill-rule="evenodd" clip-rule="evenodd" d="M538.249 319.3L550.269 321.008L551.245 377.391V392.028L547.651 406.249L533.867 425.721L505.425 451.976L535.618 411.281L537.587 400.078L532.992 389.403L544.369 365.555L523.147 374.088L542.619 345.427L537.327 332.717L519.081 325.447L513.296 305.031L538.249 319.3Z" fill="#40759E"/>
</g>
<mask id="mask6_22_9677" style="mask-type:luminance" maskUnits="userSpaceOnUse" x="266" y="284" width="502" height="232">
<path d="M297.444 430.948C313.53 425.446 503.143 293.894 515.763 305.79C524.38 313.912 539.558 322.15 550.269 321.008C565.781 310.361 591.789 280.267 597.875 285.056C609.167 293.941 781.416 512.51 766.246 500.427C757.467 493.435 266.323 515.613 266.323 515.613C266.323 515.613 281.358 436.451 297.444 430.948Z" fill="white"/>
</mask>
<g mask="url(#mask6_22_9677)">
<path fill-rule="evenodd" clip-rule="evenodd" d="M383.783 362.414C392.186 362.092 473.414 311.675 481.35 310.274C489.286 308.874 513.561 302.517 513.561 302.517L481.817 349.021L492.087 352.756L488.819 362.414L490.22 381.771L467.812 425.581L414.594 493.271C414.594 493.271 407.124 400.372 401.056 392.903C394.987 385.434 375.38 362.736 383.783 362.414Z" fill="#4D8CBB"/>
</g>
<mask id="mask7_22_9677" style="mask-type:luminance" maskUnits="userSpaceOnUse" x="266" y="284" width="502" height="232">
<path d="M297.444 430.948C313.53 425.446 503.143 293.894 515.763 305.79C524.38 313.912 539.558 322.15 550.269 321.008C565.781 310.361 591.789 280.267 597.875 285.056C609.167 293.941 781.416 512.51 766.246 500.427C757.467 493.435 266.323 515.613 266.323 515.613C266.323 515.613 281.358 436.451 297.444 430.948Z" fill="white"/>
</mask>
<g mask="url(#mask7_22_9677)">
<path fill-rule="evenodd" clip-rule="evenodd" d="M634.849 302.517C627.291 295.336 604.543 276.218 599.466 280.664C594.389 285.11 588.61 302.894 591.722 308.674C594.834 314.454 600.17 323.9 589.5 335.405C578.829 346.909 566.824 373.141 566.824 373.141L589.5 362.414C589.5 362.414 563.713 408.709 554.82 418.934C545.928 429.16 535.259 444.276 530.813 457.17C526.367 470.064 515.251 512.745 520.586 507.854C525.921 502.963 617.064 462.95 624.178 463.839C631.291 464.728 676.197 430.494 673.083 423.825C669.971 417.156 642.407 309.699 634.849 302.517Z" fill="#4D8CBB"/>
</g>
</g>
<defs>
<clipPath id="clip0_22_9677">
<rect width="750" height="500" fill="white"/>
</clipPath>
</defs>
</svg>
